<svg width="15" height="17" viewBox="0 0 15 17" fill="none" xmlns="http://www.w3.org/2000/svg">
<path d="M12.2011 9.20791C12.2011 9.28095 12.0916 11.4357 14.4654 12.5678C14.0272 13.9191 12.4933 16.9138 10.7038 16.9138C9.68119 16.9138 9.09685 16.2564 7.92819 16.2564C6.72301 16.2564 6.06563 16.9138 5.15262 16.9138C3.39962 16.9868 1.71967 13.7 1.2449 12.3487C0.87969 11.3261 0.733607 10.34 0.733607 9.39051C0.733607 6.14017 2.88833 4.56977 4.93349 4.53325C5.91955 4.53325 7.16126 5.22715 7.70907 5.22715C8.22036 5.22715 9.64466 4.38717 10.9594 4.49673C12.3107 4.6063 13.3333 5.11759 14.0272 6.10365C12.822 6.87058 12.2011 7.85664 12.2011 9.20791ZM10.156 3.21851C9.42554 4.05848 8.54904 4.53325 7.5995 4.46021C7.52646 3.47415 7.89167 2.56113 8.54904 1.83072C9.13337 1.17335 10.156 0.625536 11.0325 0.552495C11.0325 0.954223 11.142 2.04984 10.156 3.21851Z" fill="white"/>
</svg>
