<svg width="11" height="11" viewBox="0 0 11 11" fill="none" xmlns="http://www.w3.org/2000/svg">
<path d="M5.55823 3.09417C6.93872 3.09417 8.07816 4.23362 8.07816 5.6141C8.07816 7.0165 6.93872 8.13403 5.55823 8.13403C4.15584 8.13403 3.0383 7.0165 3.0383 5.6141C3.0383 4.23362 4.15584 3.09417 5.55823 3.09417ZM5.55823 7.25753C6.45664 7.25753 7.17975 6.53442 7.17975 5.6141C7.17975 4.71569 6.45664 3.99258 5.55823 3.99258C4.63791 3.99258 3.9148 4.71569 3.9148 5.6141C3.9148 6.53442 4.65982 7.25753 5.55823 7.25753ZM8.75745 3.00652C8.75745 3.33521 8.4945 3.59816 8.16581 3.59816C7.83713 3.59816 7.57418 3.33521 7.57418 3.00652C7.57418 2.67784 7.83713 2.41489 8.16581 2.41489C8.4945 2.41489 8.75745 2.67784 8.75745 3.00652ZM10.4228 3.59816C10.4666 4.40892 10.4666 6.8412 10.4228 7.65196C10.379 8.44081 10.2037 9.12009 9.63395 9.71173C9.06422 10.2815 8.36302 10.4567 7.57418 10.5006C6.76342 10.5444 4.33114 10.5444 3.52038 10.5006C2.73153 10.4567 2.05224 10.2815 1.46061 9.71173C0.890884 9.12009 0.715584 8.44081 0.671759 7.65196C0.627935 6.8412 0.627935 4.40892 0.671759 3.59816C0.715584 2.80931 0.890884 2.10811 1.46061 1.53839C2.05224 0.968665 2.73153 0.793366 3.52038 0.749541C4.33114 0.705716 6.76342 0.705716 7.57418 0.749541C8.36302 0.793366 9.06422 0.968665 9.63395 1.53839C10.2037 2.10811 10.379 2.80931 10.4228 3.59816ZM9.371 8.50654C9.63395 7.87108 9.56821 6.33721 9.56821 5.6141C9.56821 4.9129 9.63395 3.37903 9.371 2.72166C9.1957 2.30532 8.86701 1.95472 8.45067 1.80134C7.7933 1.53839 6.25943 1.60413 5.55823 1.60413C4.83512 1.60413 3.30125 1.53839 2.66579 1.80134C2.22754 1.97664 1.89886 2.30532 1.72356 2.72166C1.46061 3.37903 1.52634 4.9129 1.52634 5.6141C1.52634 6.33721 1.46061 7.87108 1.72356 8.50654C1.89886 8.94479 2.22754 9.27348 2.66579 9.44878C3.30125 9.71173 4.83512 9.64599 5.55823 9.64599C6.25943 9.64599 7.7933 9.71173 8.45067 9.44878C8.86701 9.27348 9.21761 8.94479 9.371 8.50654Z" fill="white"/>
</svg>
