<svg width="11" height="10" viewBox="0 0 11 10" fill="none" xmlns="http://www.w3.org/2000/svg">
<path d="M2.4905 9.82129H0.452648V3.26947H2.4905V9.82129ZM1.46062 2.39297C0.82516 2.39297 0.299261 1.84516 0.299261 1.18779C0.299261 0.552329 0.82516 0.0264306 1.46062 0.0264306C2.11799 0.0264306 2.64389 0.552329 2.64389 1.18779C2.64389 1.84516 2.11799 2.39297 1.46062 2.39297ZM10.0941 9.82129H8.07818V6.64399C8.07818 5.87705 8.05626 4.9129 7.00447 4.9129C5.95267 4.9129 5.79928 5.72366 5.79928 6.57825V9.82129H3.76143V3.26947H5.71163V4.16788H5.73354C6.01841 3.66389 6.67578 3.11608 7.66184 3.11608C9.72161 3.11608 10.116 4.47465 10.116 6.22765V9.82129H10.0941Z" fill="white"/>
</svg>
