<svg width="32" height="32" viewBox="0 0 32 32" fill="none" xmlns="http://www.w3.org/2000/svg">
<path d="M5.33333 23.9998L12 15.9998M26.6667 23.9998L20 15.9998M4 10.6665L13.6333 17.0887C14.4886 17.6589 14.9163 17.944 15.3786 18.0548C15.7871 18.1527 16.2129 18.1527 16.6214 18.0548C17.0837 17.944 17.5114 17.6589 18.3667 17.0887L28 10.6665M8.26667 25.3332H23.7333C25.2268 25.3332 25.9735 25.3332 26.544 25.0425C27.0457 24.7869 27.4537 24.3789 27.7094 23.8771C28 23.3067 28 22.56 28 21.0665V10.9332C28 9.4397 28 8.69296 27.7094 8.12253C27.4537 7.62076 27.0457 7.21282 26.544 6.95715C25.9735 6.6665 25.2268 6.6665 23.7333 6.6665H8.26667C6.77319 6.6665 6.02646 6.6665 5.45603 6.95715C4.95426 7.21282 4.54631 7.62076 4.29065 8.12253C4 8.69296 4 9.4397 4 10.9332V21.0665C4 22.56 4 23.3067 4.29065 23.8771C4.54631 24.3789 4.95426 24.7869 5.45603 25.0425C6.02646 25.3332 6.77319 25.3332 8.26667 25.3332Z" stroke="white" stroke-width="2" stroke-linecap="round" stroke-linejoin="round"/>
</svg>
