<svg width="12" height="10" viewBox="0 0 12 10" fill="none" xmlns="http://www.w3.org/2000/svg">
<path d="M10.3622 2.33521C10.3622 2.44477 10.3622 2.53242 10.3622 2.64198C10.3622 5.68781 8.06143 9.17189 3.83233 9.17189C2.51758 9.17189 1.3124 8.79938 0.304424 8.142C0.479723 8.16392 0.655023 8.18583 0.852235 8.18583C1.92594 8.18583 2.912 7.81332 3.70085 7.19977C2.69288 7.17786 1.83829 6.52048 1.55343 5.60016C1.70682 5.62207 1.83829 5.64399 1.99168 5.64399C2.18889 5.64399 2.40802 5.60016 2.58332 5.55634C1.53152 5.33721 0.742673 4.41689 0.742673 3.29936V3.27744C1.04945 3.45274 1.42196 3.54039 1.79447 3.5623C1.15901 3.14597 0.764585 2.44477 0.764585 1.65592C0.764585 1.21767 0.874147 0.82325 1.07136 0.494564C2.21081 1.87505 3.91998 2.79537 5.82636 2.90493C5.78253 2.72963 5.76062 2.55433 5.76062 2.37903C5.76062 1.10811 6.7905 0.0782275 8.06143 0.0782275C8.7188 0.0782275 9.31043 0.341177 9.74868 0.801338C10.2527 0.691776 10.7567 0.494564 11.1949 0.231615C11.0196 0.779425 10.669 1.21767 10.1869 1.50254C10.6471 1.45871 11.1073 1.32724 11.5017 1.15194C11.1949 1.6121 10.8005 2.00652 10.3622 2.33521Z" fill="white"/>
</svg>
