<svg width="17" height="16" viewBox="0 0 17 16" fill="none" xmlns="http://www.w3.org/2000/svg">
<path d="M8.49998 9.01333C5.93109 9.01333 3.96665 9.56444 2.60665 10.6667C1.24665 11.7689 0.56665 13.3511 0.56665 15.4133C0.56665 15.5911 0.632762 15.7333 0.764984 15.84C0.897206 15.9467 1.03887 16 1.18998 16H15.81C15.9611 16 16.1028 15.9467 16.235 15.84C16.3672 15.7333 16.4333 15.5911 16.4333 15.4133C16.4333 13.3511 15.7533 11.7689 14.3933 10.6667C13.0333 9.56444 11.0689 9.01333 8.49998 9.01333ZM1.86998 14.8267C2.09665 11.7333 4.30665 10.1867 8.49998 10.1867C12.6933 10.1867 14.9033 11.7333 15.13 14.8267H1.86998ZM8.49998 0C7.74443 0 7.04554 0.168888 6.40332 0.506666C5.76109 0.844444 5.26054 1.31556 4.90165 1.92C4.54276 2.52444 4.36332 3.2 4.36332 3.94667C4.36332 4.69333 4.55221 5.39556 4.92998 6.05333C5.30776 6.71111 5.80832 7.22667 6.43165 7.6C7.05498 7.97333 7.74443 8.16 8.49998 8.16C9.25554 8.16 9.94498 7.97333 10.5683 7.6C11.1917 7.22667 11.6922 6.71111 12.07 6.05333C12.4478 5.39556 12.6367 4.69333 12.6367 3.94667C12.6367 3.2 12.4572 2.52444 12.0983 1.92C11.7394 1.31556 11.2389 0.844444 10.5967 0.506666C9.95443 0.168888 9.25554 0 8.49998 0ZM8.49998 6.98667C7.70665 6.98667 7.02665 6.69333 6.45998 6.10667C5.89332 5.52 5.60998 4.80889 5.60998 3.97333C5.60998 3.13778 5.88387 2.46222 6.43165 1.94667C6.97943 1.43111 7.66887 1.17333 8.49998 1.17333C9.33109 1.17333 10.0205 1.44 10.5683 1.97333C11.1161 2.50667 11.39 3.18222 11.39 4C11.39 4.81778 11.1067 5.52 10.54 6.10667C9.97332 6.69333 9.29332 6.98667 8.49998 6.98667Z" fill="white"/>
</svg>
