<svg width="15" height="15" viewBox="0 0 15 15" fill="none" xmlns="http://www.w3.org/2000/svg">
<path d="M13.8937 0.652344H5.44097C5.22859 0.652344 5.05674 0.824196 5.05674 1.03657C5.05674 1.24894 5.22859 1.4208 5.44097 1.4208H12.9662L0.558739 13.8282C0.408643 13.9783 0.408643 14.2214 0.558739 14.3715C0.633769 14.4465 0.732103 14.484 0.830402 14.484C0.928701 14.484 1.027 14.4465 1.10207 14.3715L13.5095 1.96408V9.48929C13.5095 9.70167 13.6813 9.87352 13.8937 9.87352C14.1061 9.87352 14.2779 9.70167 14.2779 9.48929V1.03657C14.2779 0.824196 14.106 0.652344 13.8937 0.652344Z" fill="#050B20"/>
</svg>
