<svg width="18" height="18" viewBox="0 0 18 18" fill="none" xmlns="http://www.w3.org/2000/svg">
<g clip-path="url(#clip0_53_2885)">
<path d="M10.9333 3.96444C10.9333 3.81346 10.8861 3.6908 10.7918 3.59644C10.6974 3.50208 10.5747 3.45491 10.4238 3.45491H5.10202C4.95105 3.45491 4.82839 3.50208 4.73403 3.59644C4.63967 3.6908 4.59249 3.81346 4.59249 3.96444V8.21051C4.59249 8.36148 4.63967 8.49358 4.73403 8.60681C4.82839 8.72003 4.95105 8.77665 5.10202 8.77665H10.4238C10.5747 8.77665 10.6974 8.72003 10.7918 8.60681C10.8861 8.49358 10.9333 8.36148 10.9333 8.21051V3.96444ZM9.85762 7.70098H5.61155V4.53058H9.85762V7.70098ZM17.0476 4.53058L14.8963 3.51152C14.7831 3.43604 14.651 3.41716 14.5 3.45491C14.349 3.49265 14.2452 3.57757 14.1886 3.70967C14.132 3.84177 14.1226 3.98331 14.1603 4.13428C14.1981 4.28525 14.2924 4.37961 14.4434 4.41735L15.236 4.87026L15.1794 5.04011C15.1794 5.37979 15.2832 5.68174 15.4907 5.94594C15.6983 6.21014 15.9531 6.39885 16.255 6.51208V12.9661C16.255 13.1171 16.1984 13.2492 16.0852 13.3624C15.972 13.4756 15.8493 13.5322 15.7172 13.5322C15.5851 13.5322 15.4624 13.4756 15.3492 13.3624C15.236 13.2492 15.1794 13.1171 15.1794 12.9661V8.72003C15.1794 8.11615 14.9623 7.56888 14.5283 7.07822C14.0943 6.58756 13.613 6.28562 13.0846 6.17239V2.88876C13.0846 2.32262 12.8771 1.83196 12.4619 1.41679C12.0467 1.00162 11.5561 0.794035 10.9899 0.794035H4.59249C4.02635 0.794035 3.52626 1.00162 3.09221 1.41679C2.65817 1.83196 2.44115 2.32262 2.44115 2.88876V14.7778L1.70516 15.1741C1.47871 15.2873 1.36548 15.4383 1.36548 15.627V17.2122C1.36548 17.3631 1.42209 17.4952 1.53532 17.6085C1.64855 17.7217 1.78065 17.7783 1.93162 17.7783H13.5942C13.7451 17.7783 13.8678 17.7217 13.9622 17.6085C14.0565 17.4952 14.1037 17.3631 14.1037 17.2122V15.627C14.1037 15.4383 14.0093 15.2873 13.8206 15.1741L13.0846 14.7778V7.24806C13.3488 7.36129 13.5847 7.55944 13.7923 7.84251C13.9999 8.12558 14.1037 8.41809 14.1037 8.72003V12.9661C14.1037 13.419 14.2641 13.8059 14.5849 14.1267C14.9057 14.4475 15.2832 14.6079 15.7172 14.6079C16.1512 14.6079 16.5287 14.4475 16.8495 14.1267C17.1703 13.8059 17.3307 13.419 17.3307 12.9661V5.04011C17.3307 4.81365 17.2364 4.64381 17.0476 4.53058ZM13.0846 16.7026H2.44115V15.9667L3.23375 15.5704C3.42246 15.4949 3.51682 15.3439 3.51682 15.1174V2.88876C3.51682 2.62456 3.62061 2.38867 3.8282 2.18109C4.03579 1.9735 4.29055 1.86971 4.59249 1.86971H10.9899C11.2541 1.86971 11.49 1.9735 11.6976 2.18109C11.9052 2.38867 12.009 2.62456 12.009 2.88876V15.1174C12.009 15.3439 12.1033 15.4949 12.292 15.5704L13.0846 15.9667V16.7026Z" fill="#050B20"/>
</g>
<defs>
<clipPath id="clip0_53_2885">
<rect width="16.9843" height="16.9843" fill="white" transform="matrix(1 0 0 -1 0.855957 17.7783)"/>
</clipPath>
</defs>
</svg>
