<svg width="17" height="17" viewBox="0 0 17 17" fill="none" xmlns="http://www.w3.org/2000/svg">
<g clip-path="url(#clip0_510_690)">
<path d="M10.0527 3.16284C10.0527 3.01224 10.0056 2.88988 9.91148 2.79575C9.81735 2.70163 9.69499 2.65456 9.54438 2.65456H4.23569C4.08508 2.65456 3.96272 2.70163 3.86859 2.79575C3.77447 2.88988 3.72741 3.01224 3.72741 3.16284V7.39851C3.72741 7.54911 3.77447 7.68089 3.86859 7.79384C3.96272 7.90679 4.08508 7.96326 4.23569 7.96326H9.54438C9.69499 7.96326 9.81735 7.90679 9.91148 7.79384C10.0056 7.68089 10.0527 7.54911 10.0527 7.39851V3.16284ZM8.97963 6.89023H4.74397V3.7276H8.97963V6.89023ZM16.152 3.7276L14.006 2.71104C13.893 2.63574 13.7612 2.61691 13.6106 2.65456C13.46 2.69221 13.3565 2.77693 13.3 2.9087C13.2435 3.04048 13.2341 3.18167 13.2718 3.33227C13.3094 3.48287 13.4035 3.577 13.5541 3.61465L14.3448 4.06645L14.2883 4.23588C14.2883 4.57473 14.3919 4.87593 14.5989 5.13949C14.806 5.40304 15.0602 5.59129 15.3614 5.70424V12.1425C15.3614 12.2931 15.3049 12.4248 15.1919 12.5378C15.079 12.6507 14.9566 12.7072 14.8248 12.7072C14.6931 12.7072 14.5707 12.6507 14.4578 12.5378C14.3448 12.4248 14.2883 12.2931 14.2883 12.1425V7.90679C14.2883 7.30438 14.0718 6.75845 13.6389 6.269C13.2059 5.77954 12.7258 5.47834 12.1987 5.36539V2.08981C12.1987 1.52505 11.9917 1.0356 11.5775 0.621445C11.1633 0.207291 10.6739 0.000213936 10.1091 0.000213936H3.72741C3.16265 0.000213936 2.66378 0.207291 2.2308 0.621445C1.79783 1.0356 1.58134 1.52505 1.58134 2.08981V13.9497L0.847154 14.345C0.621252 14.4579 0.508301 14.6085 0.508301 14.7968V16.3781C0.508301 16.5287 0.564776 16.6605 0.677727 16.7734C0.790678 16.8864 0.922455 16.9429 1.07306 16.9429H12.707C12.8576 16.9429 12.98 16.8864 13.0741 16.7734C13.1682 16.6605 13.2153 16.5287 13.2153 16.3781V14.7968C13.2153 14.6085 13.1212 14.4579 12.9329 14.345L12.1987 13.9497V6.43842C12.4623 6.55137 12.6976 6.74904 12.9047 7.03142C13.1118 7.31379 13.2153 7.60558 13.2153 7.90679V12.1425C13.2153 12.5943 13.3753 12.9802 13.6953 13.3002C14.0154 13.6202 14.3919 13.7802 14.8248 13.7802C15.2578 13.7802 15.6343 13.6202 15.9544 13.3002C16.2744 12.9802 16.4344 12.5943 16.4344 12.1425V4.23588C16.4344 4.00998 16.3403 3.84055 16.152 3.7276ZM12.1987 15.8698H1.58134V15.1357L2.37199 14.7403C2.56024 14.665 2.65437 14.5144 2.65437 14.2885V2.08981C2.65437 1.82626 2.75791 1.59094 2.96499 1.38386C3.17206 1.17679 3.4262 1.07325 3.72741 1.07325H10.1091C10.3727 1.07325 10.608 1.17679 10.8151 1.38386C11.0222 1.59094 11.1257 1.82626 11.1257 2.08981V14.2885C11.1257 14.5144 11.2198 14.665 11.4081 14.7403L12.1987 15.1357V15.8698Z" fill="white"/>
</g>
<defs>
<clipPath id="clip0_510_690">
<rect width="16.9427" height="16.9427" fill="white" transform="matrix(1 0 0 -1 0 16.9429)"/>
</clipPath>
</defs>
</svg>
