<svg width="17" height="17" viewBox="0 0 17 17" fill="none" xmlns="http://www.w3.org/2000/svg">
<g clip-path="url(#clip0_510_693)">
<path d="M2.82373 1.5813C2.29663 1.5813 1.84482 1.76955 1.46832 2.14606C1.09182 2.52256 0.903564 2.98378 0.903564 3.52971C0.903564 4.07564 1.09182 4.53685 1.46832 4.91336C1.84482 5.28986 2.29663 5.47811 2.82373 5.47811C3.35084 5.47811 3.80264 5.28986 4.17914 4.91336C4.55565 4.53685 4.7439 4.07564 4.7439 3.52971C4.7439 2.98378 4.55565 2.52256 4.17914 2.14606C3.80264 1.76955 3.35084 1.5813 2.82373 1.5813ZM2.82373 2.65434C3.04963 2.65434 3.25671 2.73905 3.44496 2.90848C3.63321 3.0779 3.72734 3.28498 3.72734 3.52971C3.72734 3.77443 3.63321 3.98151 3.44496 4.15094C3.25671 4.32036 3.04963 4.40508 2.82373 4.40508C2.59783 4.40508 2.39075 4.32036 2.2025 4.15094C2.01425 3.98151 1.92012 3.77443 1.92012 3.52971C1.92012 3.28498 2.01425 3.0779 2.2025 2.90848C2.39075 2.73905 2.59783 2.65434 2.82373 2.65434ZM2.82373 11.4645C2.29663 11.4645 1.84482 11.6528 1.46832 12.0293C1.09182 12.4058 0.903564 12.867 0.903564 13.4129C0.903564 13.9589 1.09182 14.4201 1.46832 14.7966C1.84482 15.1731 2.29663 15.3613 2.82373 15.3613C3.35084 15.3613 3.80264 15.1731 4.17914 14.7966C4.55565 14.4201 4.7439 13.9589 4.7439 13.4129C4.7439 12.867 4.55565 12.4058 4.17914 12.0293C3.80264 11.6528 3.35084 11.4645 2.82373 11.4645ZM2.82373 12.5376C3.04963 12.5376 3.25671 12.6223 3.44496 12.7917C3.63321 12.9611 3.72734 13.1682 3.72734 13.4129C3.72734 13.6576 3.63321 13.8647 3.44496 14.0342C3.25671 14.2036 3.04963 14.2883 2.82373 14.2883C2.59783 14.2883 2.39075 14.2036 2.2025 14.0342C2.01425 13.8647 1.92012 13.6576 1.92012 13.4129C1.92012 13.1682 2.01425 12.9611 2.2025 12.7917C2.39075 12.6223 2.59783 12.5376 2.82373 12.5376ZM8.47128 1.5813C7.94418 1.5813 7.49238 1.76955 7.11587 2.14606C6.73937 2.52256 6.55112 2.98378 6.55112 3.52971C6.55112 4.07564 6.73937 4.53685 7.11587 4.91336C7.49238 5.28986 7.94418 5.47811 8.47128 5.47811C8.99839 5.47811 9.45019 5.28986 9.8267 4.91336C10.2032 4.53685 10.3915 4.07564 10.3915 3.52971C10.3915 2.98378 10.2032 2.52256 9.8267 2.14606C9.45019 1.76955 8.99839 1.5813 8.47128 1.5813ZM8.47128 2.65434C8.69719 2.65434 8.90426 2.73905 9.09252 2.90848C9.28077 3.0779 9.37489 3.28498 9.37489 3.52971C9.37489 3.77443 9.28077 3.98151 9.09252 4.15094C8.90426 4.32036 8.69719 4.40508 8.47128 4.40508C8.24538 4.40508 8.03831 4.32036 7.85005 4.15094C7.6618 3.98151 7.56768 3.77443 7.56768 3.52971C7.56768 3.28498 7.6618 3.0779 7.85005 2.90848C8.03831 2.73905 8.24538 2.65434 8.47128 2.65434ZM8.47128 11.4645C7.94418 11.4645 7.49238 11.6528 7.11587 12.0293C6.73937 12.4058 6.55112 12.867 6.55112 13.4129C6.55112 13.9589 6.73937 14.4201 7.11587 14.7966C7.49238 15.1731 7.94418 15.3613 8.47128 15.3613C8.99839 15.3613 9.45019 15.1731 9.8267 14.7966C10.2032 14.4201 10.3915 13.9589 10.3915 13.4129C10.3915 12.867 10.2032 12.4058 9.8267 12.0293C9.45019 11.6528 8.99839 11.4645 8.47128 11.4645ZM8.47128 12.5376C8.69719 12.5376 8.90426 12.6223 9.09252 12.7917C9.28077 12.9611 9.37489 13.1682 9.37489 13.4129C9.37489 13.6576 9.28077 13.8647 9.09252 14.0342C8.90426 14.2036 8.69719 14.2883 8.47128 14.2883C8.24538 14.2883 8.03831 14.2036 7.85005 14.0342C7.6618 13.8647 7.56768 13.6576 7.56768 13.4129C7.56768 13.1682 7.6618 12.9611 7.85005 12.7917C8.03831 12.6223 8.24538 12.5376 8.47128 12.5376ZM14.1188 1.5813C13.5917 1.5813 13.1399 1.76955 12.7634 2.14606C12.3869 2.52256 12.1987 2.98378 12.1987 3.52971C12.1987 4.07564 12.3869 4.53685 12.7634 4.91336C13.1399 5.28986 13.5917 5.47811 14.1188 5.47811C14.6459 5.47811 15.0977 5.28986 15.4742 4.91336C15.8508 4.53685 16.039 4.07564 16.039 3.52971C16.039 2.98378 15.8508 2.52256 15.4742 2.14606C15.0977 1.76955 14.6459 1.5813 14.1188 1.5813ZM14.1188 2.65434C14.3447 2.65434 14.5518 2.73905 14.7401 2.90848C14.9283 3.0779 15.0224 3.28498 15.0224 3.52971C15.0224 3.77443 14.9283 3.98151 14.7401 4.15094C14.5518 4.32036 14.3447 4.40508 14.1188 4.40508C13.8929 4.40508 13.6859 4.32036 13.4976 4.15094C13.3094 3.98151 13.2152 3.77443 13.2152 3.52971C13.2152 3.28498 13.3094 3.0779 13.4976 2.90848C13.6859 2.73905 13.8929 2.65434 14.1188 2.65434ZM14.1188 11.4645C13.5917 11.4645 13.1399 11.6528 12.7634 12.0293C12.3869 12.4058 12.1987 12.867 12.1987 13.4129C12.1987 13.9589 12.3869 14.4201 12.7634 14.7966C13.1399 15.1731 13.5917 15.3613 14.1188 15.3613C14.6459 15.3613 15.0977 15.1731 15.4742 14.7966C15.8508 14.4201 16.039 13.9589 16.039 13.4129C16.039 12.867 15.8508 12.4058 15.4742 12.0293C15.0977 11.6528 14.6459 11.4645 14.1188 11.4645ZM14.1188 12.5376C14.3447 12.5376 14.5518 12.6223 14.7401 12.7917C14.9283 12.9611 15.0224 13.1682 15.0224 13.4129C15.0224 13.6576 14.9283 13.8647 14.7401 14.0342C14.5518 14.2036 14.3447 14.2883 14.1188 14.2883C13.8929 14.2883 13.6859 14.2036 13.4976 14.0342C13.3094 13.8647 13.2152 13.6576 13.2152 13.4129C13.2152 13.1682 13.3094 12.9611 13.4976 12.7917C13.6859 12.6223 13.8929 12.5376 14.1188 12.5376ZM2.31545 4.91336V11.9728C2.31545 12.1234 2.36252 12.2552 2.45664 12.3681C2.55077 12.4811 2.67313 12.5376 2.82373 12.5376C2.97433 12.5376 3.0967 12.4811 3.19082 12.3681C3.28495 12.2552 3.33201 12.1422 3.33201 12.0293V4.91336C3.33201 4.80041 3.28495 4.68745 3.19082 4.5745C3.0967 4.46155 2.97433 4.40508 2.82373 4.40508C2.67313 4.40508 2.55077 4.46155 2.45664 4.5745C2.36252 4.68745 2.31545 4.80041 2.31545 4.91336ZM7.963 4.91336V11.9728C7.963 12.1234 8.01007 12.2552 8.10419 12.3681C8.19832 12.4811 8.32068 12.5376 8.47128 12.5376C8.62189 12.5376 8.74425 12.4811 8.83838 12.3681C8.9325 12.2552 8.97956 12.1422 8.97956 12.0293V4.91336C8.97956 4.80041 8.9325 4.68745 8.83838 4.5745C8.74425 4.46155 8.62189 4.40508 8.47128 4.40508C8.32068 4.40508 8.19832 4.46155 8.10419 4.5745C8.01007 4.68745 7.963 4.80041 7.963 4.91336ZM13.6106 4.91336V7.73713C13.6106 7.81243 13.5917 7.86891 13.5541 7.90656C13.5164 7.94421 13.4788 7.96303 13.4411 7.96303H2.82373C2.67313 7.96303 2.55077 8.0101 2.45664 8.10422C2.36252 8.19835 2.31545 8.32071 2.31545 8.47131C2.31545 8.62192 2.36252 8.74428 2.45664 8.83841C2.55077 8.93253 2.67313 8.97959 2.82373 8.97959H13.4411C13.78 8.97959 14.0624 8.86664 14.2883 8.64074C14.5142 8.41484 14.6271 8.11364 14.6271 7.73713V4.96983C14.6271 4.81923 14.5801 4.68745 14.4859 4.5745C14.3918 4.46155 14.2694 4.40508 14.1188 4.40508C13.9682 4.40508 13.8459 4.46155 13.7517 4.5745C13.6576 4.68745 13.6106 4.80041 13.6106 4.91336Z" fill="white"/>
</g>
<defs>
<clipPath id="clip0_510_693">
<rect width="16.9427" height="16.9427" fill="white" transform="matrix(1 0 0 -1 0 16.9429)"/>
</clipPath>
</defs>
</svg>
