<svg width="16" height="15" viewBox="0 0 16 15" fill="none" xmlns="http://www.w3.org/2000/svg">
<path d="M2.18416 0.203693C1.65576 0.203693 1.20285 0.392407 0.82542 0.769835C0.447992 1.14726 0.259277 1.60961 0.259277 2.15689C0.259277 2.70416 0.447992 3.16651 0.82542 3.54394C1.20285 3.92136 1.65576 4.11008 2.18416 4.11008C2.71256 4.11008 3.16548 3.92136 3.54291 3.54394C3.92033 3.16651 4.10905 2.70416 4.10905 2.15689C4.10905 1.60961 3.92033 1.14726 3.54291 0.769835C3.16548 0.392407 2.71256 0.203693 2.18416 0.203693ZM2.18416 1.27936C2.41062 1.27936 2.61821 1.36429 2.80692 1.53413C2.99563 1.70397 3.08999 1.91156 3.08999 2.15689C3.08999 2.40221 2.99563 2.6098 2.80692 2.77964C2.61821 2.94949 2.41062 3.03441 2.18416 3.03441C1.95771 3.03441 1.75012 2.94949 1.56141 2.77964C1.37269 2.6098 1.27833 2.40221 1.27833 2.15689C1.27833 1.91156 1.37269 1.70397 1.56141 1.53413C1.75012 1.36429 1.95771 1.27936 2.18416 1.27936ZM2.18416 10.1112C1.65576 10.1112 1.20285 10.2999 0.82542 10.6773C0.447992 11.0548 0.259277 11.5171 0.259277 12.0644C0.259277 12.6117 0.447992 13.074 0.82542 13.4514C1.20285 13.8289 1.65576 14.0176 2.18416 14.0176C2.71256 14.0176 3.16548 13.8289 3.54291 13.4514C3.92033 13.074 4.10905 12.6117 4.10905 12.0644C4.10905 11.5171 3.92033 11.0548 3.54291 10.6773C3.16548 10.2999 2.71256 10.1112 2.18416 10.1112ZM2.18416 11.1869C2.41062 11.1869 2.61821 11.2718 2.80692 11.4416C2.99563 11.6115 3.08999 11.8191 3.08999 12.0644C3.08999 12.3097 2.99563 12.5173 2.80692 12.6871C2.61821 12.857 2.41062 12.9419 2.18416 12.9419C1.95771 12.9419 1.75012 12.857 1.56141 12.6871C1.37269 12.5173 1.27833 12.3097 1.27833 12.0644C1.27833 11.8191 1.37269 11.6115 1.56141 11.4416C1.75012 11.2718 1.95771 11.1869 2.18416 11.1869ZM7.84559 0.203693C7.31719 0.203693 6.86428 0.392407 6.48685 0.769835C6.10942 1.14726 5.92071 1.60961 5.92071 2.15689C5.92071 2.70416 6.10942 3.16651 6.48685 3.54394C6.86428 3.92136 7.31719 4.11008 7.84559 4.11008C8.37399 4.11008 8.82691 3.92136 9.20433 3.54394C9.58176 3.16651 9.77048 2.70416 9.77048 2.15689C9.77048 1.60961 9.58176 1.14726 9.20433 0.769835C8.82691 0.392407 8.37399 0.203693 7.84559 0.203693ZM7.84559 1.27936C8.07205 1.27936 8.27963 1.36429 8.46835 1.53413C8.65706 1.70397 8.75142 1.91156 8.75142 2.15689C8.75142 2.40221 8.65706 2.6098 8.46835 2.77964C8.27963 2.94949 8.07205 3.03441 7.84559 3.03441C7.61913 3.03441 7.41155 2.94949 7.22283 2.77964C7.03412 2.6098 6.93976 2.40221 6.93976 2.15689C6.93976 1.91156 7.03412 1.70397 7.22283 1.53413C7.41155 1.36429 7.61913 1.27936 7.84559 1.27936ZM7.84559 10.1112C7.31719 10.1112 6.86428 10.2999 6.48685 10.6773C6.10942 11.0548 5.92071 11.5171 5.92071 12.0644C5.92071 12.6117 6.10942 13.074 6.48685 13.4514C6.86428 13.8289 7.31719 14.0176 7.84559 14.0176C8.37399 14.0176 8.82691 13.8289 9.20433 13.4514C9.58176 13.074 9.77048 12.6117 9.77048 12.0644C9.77048 11.5171 9.58176 11.0548 9.20433 10.6773C8.82691 10.2999 8.37399 10.1112 7.84559 10.1112ZM7.84559 11.1869C8.07205 11.1869 8.27963 11.2718 8.46835 11.4416C8.65706 11.6115 8.75142 11.8191 8.75142 12.0644C8.75142 12.3097 8.65706 12.5173 8.46835 12.6871C8.27963 12.857 8.07205 12.9419 7.84559 12.9419C7.61913 12.9419 7.41155 12.857 7.22283 12.6871C7.03412 12.5173 6.93976 12.3097 6.93976 12.0644C6.93976 11.8191 7.03412 11.6115 7.22283 11.4416C7.41155 11.2718 7.61913 11.1869 7.84559 11.1869ZM13.507 0.203693C12.9786 0.203693 12.5257 0.392407 12.1483 0.769835C11.7708 1.14726 11.5821 1.60961 11.5821 2.15689C11.5821 2.70416 11.7708 3.16651 12.1483 3.54394C12.5257 3.92136 12.9786 4.11008 13.507 4.11008C14.0354 4.11008 14.4883 3.92136 14.8658 3.54394C15.2432 3.16651 15.4319 2.70416 15.4319 2.15689C15.4319 1.60961 15.2432 1.14726 14.8658 0.769835C14.4883 0.392407 14.0354 0.203693 13.507 0.203693ZM13.507 1.27936C13.7335 1.27936 13.9411 1.36429 14.1298 1.53413C14.3185 1.70397 14.4128 1.91156 14.4128 2.15689C14.4128 2.40221 14.3185 2.6098 14.1298 2.77964C13.9411 2.94949 13.7335 3.03441 13.507 3.03441C13.2806 3.03441 13.073 2.94949 12.8843 2.77964C12.6955 2.6098 12.6012 2.40221 12.6012 2.15689C12.6012 1.91156 12.6955 1.70397 12.8843 1.53413C13.073 1.36429 13.2806 1.27936 13.507 1.27936ZM13.507 10.1112C12.9786 10.1112 12.5257 10.2999 12.1483 10.6773C11.7708 11.0548 11.5821 11.5171 11.5821 12.0644C11.5821 12.6117 11.7708 13.074 12.1483 13.4514C12.5257 13.8289 12.9786 14.0176 13.507 14.0176C14.0354 14.0176 14.4883 13.8289 14.8658 13.4514C15.2432 13.074 15.4319 12.6117 15.4319 12.0644C15.4319 11.5171 15.2432 11.0548 14.8658 10.6773C14.4883 10.2999 14.0354 10.1112 13.507 10.1112ZM13.507 11.1869C13.7335 11.1869 13.9411 11.2718 14.1298 11.4416C14.3185 11.6115 14.4128 11.8191 14.4128 12.0644C14.4128 12.3097 14.3185 12.5173 14.1298 12.6871C13.9411 12.857 13.7335 12.9419 13.507 12.9419C13.2806 12.9419 13.073 12.857 12.8843 12.6871C12.6955 12.5173 12.6012 12.3097 12.6012 12.0644C12.6012 11.8191 12.6955 11.6115 12.8843 11.4416C13.073 11.2718 13.2806 11.1869 13.507 11.1869ZM1.67463 3.54394V10.6207C1.67463 10.7717 1.72181 10.9038 1.81617 11.017C1.91053 11.1302 2.03319 11.1869 2.18416 11.1869C2.33513 11.1869 2.4578 11.1302 2.55216 11.017C2.64651 10.9038 2.69369 10.7906 2.69369 10.6773V3.54394C2.69369 3.43071 2.64651 3.31748 2.55216 3.20425C2.4578 3.09102 2.33513 3.03441 2.18416 3.03441C2.03319 3.03441 1.91053 3.09102 1.81617 3.20425C1.72181 3.31748 1.67463 3.43071 1.67463 3.54394ZM7.33606 3.54394V10.6207C7.33606 10.7717 7.38324 10.9038 7.4776 11.017C7.57196 11.1302 7.69462 11.1869 7.84559 11.1869C7.99656 11.1869 8.11923 11.1302 8.21358 11.017C8.30794 10.9038 8.35512 10.7906 8.35512 10.6773V3.54394C8.35512 3.43071 8.30794 3.31748 8.21358 3.20425C8.11923 3.09102 7.99656 3.03441 7.84559 3.03441C7.69462 3.03441 7.57196 3.09102 7.4776 3.20425C7.38324 3.31748 7.33606 3.43071 7.33606 3.54394ZM12.9975 3.54394V6.37465C12.9975 6.45014 12.9786 6.50675 12.9409 6.54449C12.9031 6.58224 12.8654 6.60111 12.8276 6.60111H2.18416C2.03319 6.60111 1.91053 6.64829 1.81617 6.74264C1.72181 6.837 1.67463 6.95966 1.67463 7.11064C1.67463 7.26161 1.72181 7.38427 1.81617 7.47863C1.91053 7.57299 2.03319 7.62016 2.18416 7.62016H12.8276C13.1673 7.62016 13.4504 7.50694 13.6769 7.28048C13.9033 7.05402 14.0165 6.75208 14.0165 6.37465V3.60055C14.0165 3.44958 13.9694 3.31748 13.875 3.20425C13.7807 3.09102 13.658 3.03441 13.507 3.03441C13.356 3.03441 13.2334 3.09102 13.139 3.20425C13.0447 3.31748 12.9975 3.43071 12.9975 3.54394Z" fill="#050B20"/>
</svg>
