<svg width="12" height="12" viewBox="0 0 12 12" fill="none" xmlns="http://www.w3.org/2000/svg">
<g clip-path="url(#clip0_90_5388)">
<path d="M9.41129 11.5171C9.18483 11.5171 8.97096 11.4542 8.76966 11.3284L6.31637 9.78092C6.24089 9.73059 6.1654 9.73059 6.08992 9.78092L3.63663 11.3284C3.41017 11.4793 3.15856 11.536 2.88177 11.4982C2.60499 11.4605 2.36596 11.3535 2.16466 11.1774C1.91304 10.9509 1.78723 10.6616 1.78723 10.3093V1.402C1.78723 1.0749 1.90675 0.791828 2.14579 0.55279C2.38483 0.313752 2.6679 0.194233 2.995 0.194233H9.41129C9.73839 0.194233 10.0215 0.313752 10.2605 0.55279C10.4995 0.791828 10.6191 1.0749 10.6191 1.402V10.3093C10.6191 10.6364 10.4995 10.9195 10.2605 11.1585C10.0215 11.3976 9.73839 11.5171 9.41129 11.5171ZM6.20315 8.76186C6.4296 8.76186 6.64348 8.82477 6.84477 8.95058L9.29806 10.498C9.32322 10.5232 9.36096 10.5358 9.41129 10.5358C9.46161 10.5358 9.50565 10.5169 9.54339 10.4792C9.58113 10.4414 9.6 10.3848 9.6 10.3093V1.402C9.6 1.32652 9.58113 1.2699 9.54339 1.23216C9.50565 1.19442 9.46161 1.17555 9.41129 1.17555H2.995C2.94468 1.17555 2.90065 1.19442 2.8629 1.23216C2.82516 1.2699 2.80629 1.32652 2.80629 1.402V10.3093C2.80629 10.3848 2.83774 10.4477 2.90065 10.498C2.96355 10.5484 3.03275 10.5484 3.10823 10.498L5.56152 8.95058C5.76281 8.82477 5.97669 8.76186 6.20315 8.76186Z" fill="#050B20"/>
</g>
<defs>
<clipPath id="clip0_90_5388">
<rect width="11.3229" height="11.3229" fill="white" transform="matrix(1 0 0 -1 0.541748 11.5171)"/>
</clipPath>
</defs>
</svg>
