<svg width="17" height="18" viewBox="0 0 17 18" fill="none" xmlns="http://www.w3.org/2000/svg">
<path d="M7.37444 2.19545C6.262 2.19545 5.24823 2.46459 4.33316 3.00287C3.41808 3.54115 2.68243 4.2768 2.12621 5.20982C1.56998 6.14284 1.29187 7.1566 1.29187 8.25111C1.29187 9.34561 1.56998 10.3594 2.12621 11.2924C2.68243 12.2254 3.41808 12.9611 4.33316 13.4993C5.24823 14.0376 6.262 14.3068 7.37444 14.3068C8.05627 14.3068 8.72015 14.1901 9.36608 13.9569C10.012 13.7236 10.6041 13.4096 11.1424 13.0149L13.6723 15.491C13.78 15.6345 13.9325 15.7063 14.1299 15.7063C14.3272 15.7063 14.4887 15.6435 14.6143 15.5179C14.7399 15.3923 14.8027 15.2308 14.8027 15.0334C14.8027 14.8361 14.7309 14.6836 14.5874 14.5759L12.1113 12.046C12.5061 11.5077 12.8201 10.9156 13.0533 10.2697C13.2866 9.62372 13.4032 8.95985 13.4032 8.27802C13.4032 7.16558 13.134 6.14284 12.5958 5.20982C12.0575 4.2768 11.3218 3.54115 10.3888 3.00287C9.4558 2.46459 8.45101 2.19545 7.37444 2.19545ZM7.37444 3.54115C8.23569 3.54115 9.02517 3.75646 9.74288 4.18709C10.4606 4.61771 11.0258 5.19188 11.4385 5.90959C11.8511 6.62729 12.0575 7.4078 12.0575 8.25111C12.0575 9.09442 11.8511 9.88389 11.4385 10.6195C11.0258 11.3552 10.4606 11.9294 9.74288 12.342C9.02517 12.7547 8.23569 12.9611 7.37444 12.9611C6.51319 12.9611 5.72372 12.7547 5.00601 12.342C4.2883 11.9294 3.71413 11.3552 3.28351 10.6195C2.85288 9.88389 2.63757 9.09442 2.63757 8.25111C2.63757 7.4078 2.85288 6.62729 3.28351 5.90959C3.71413 5.19188 4.2883 4.61771 5.00601 4.18709C5.72372 3.75646 6.51319 3.54115 7.37444 3.54115Z" fill="white"/>
</svg>
