<svg width="20" height="20" viewBox="0 0 17 17" fill="none" xmlns="http://www.w3.org/2000/svg">
<g clip-path="url(#clip0_510_687)">
<path d="M16.9427 9.9966C16.9427 11.9168 16.3779 13.6299 15.2484 15.1359C15.1354 15.2865 14.9848 15.3712 14.7966 15.39C14.6083 15.4088 14.4389 15.3618 14.2883 15.2488C14.1377 15.1359 14.053 14.9947 14.0342 14.8253C14.0153 14.6558 14.0624 14.4958 14.1754 14.3452C15.1543 13.0651 15.6437 11.6156 15.6437 9.9966C15.6437 8.71649 15.3237 7.5305 14.6836 6.43864C14.0436 5.34678 13.1682 4.48082 12.0575 3.84077C10.9468 3.20071 9.75144 2.88068 8.47133 2.88068C7.19122 2.88068 5.99582 3.20071 4.88513 3.84077C3.77445 4.48082 2.89908 5.34678 2.25902 6.43864C1.61897 7.5305 1.29894 8.71649 1.29894 9.9966C1.29894 11.6156 1.78839 13.0651 2.7673 14.3452C2.88025 14.4958 2.92731 14.6558 2.90849 14.8253C2.88966 14.9947 2.80495 15.1359 2.65435 15.2488C2.50375 15.3618 2.33432 15.4088 2.14607 15.39C1.95782 15.3712 1.80722 15.2865 1.69427 15.1359C0.564755 13.6299 0 11.9168 0 9.9966C0 8.49058 0.376504 7.08811 1.12951 5.78917C1.88252 4.49023 2.90849 3.46426 4.20743 2.71125C5.50636 1.95825 6.92766 1.58174 8.47133 1.58174C10.015 1.58174 11.4363 1.95825 12.7352 2.71125C14.0342 3.46426 15.0601 4.49023 15.8131 5.78917C16.5662 7.08811 16.9427 8.49058 16.9427 9.9966ZM12.6505 6.04331C12.8011 6.15626 12.8764 6.30686 12.8764 6.49511C12.8764 6.68337 12.8011 6.83397 12.6505 6.94692L10.5044 9.14946C10.6927 9.48832 10.7868 9.846 10.7868 10.2225C10.7868 10.8626 10.5609 11.4085 10.1091 11.8603C9.65731 12.3121 9.11138 12.538 8.47133 12.538C7.83127 12.538 7.28534 12.3121 6.83354 11.8603C6.38173 11.4085 6.15583 10.8626 6.15583 10.2225C6.15583 9.58244 6.38173 9.03651 6.83354 8.58471C7.28534 8.1329 7.83127 7.907 8.47133 7.907C8.84783 7.907 9.20551 8.00113 9.54436 8.18938L11.7469 6.04331C11.8599 5.89271 12.0105 5.81741 12.1987 5.81741C12.387 5.81741 12.5376 5.89271 12.6505 6.04331ZM9.48789 10.2225C9.48789 9.95895 9.38435 9.73304 9.17727 9.54479C8.9702 9.35654 8.73488 9.26242 8.47133 9.26242C8.20778 9.26242 7.97246 9.35654 7.76538 9.54479C7.55831 9.73304 7.45477 9.95895 7.45477 10.2225C7.45477 10.4861 7.55831 10.7214 7.76538 10.9284C7.97246 11.1355 8.20778 11.2391 8.47133 11.2391C8.73488 11.2391 8.9702 11.1355 9.17727 10.9284C9.38435 10.7214 9.48789 10.4861 9.48789 10.2225Z" fill="white"/>
</g>
<defs>
<clipPath id="clip0_510_687">
<rect width="16.9427" height="16.9427" fill="white" transform="matrix(1 0 0 -1 0 16.9429)"/>
</clipPath>
</defs>
</svg>
