<svg width="17" height="15" viewBox="0 0 17 15" fill="none" xmlns="http://www.w3.org/2000/svg">
<path d="M16.9921 8.67718C16.9921 10.6021 16.426 12.3194 15.2937 13.8291C15.1804 13.9801 15.0295 14.065 14.8408 14.0838C14.652 14.1027 14.4822 14.0555 14.3312 13.9423C14.1803 13.8291 14.0953 13.6875 14.0765 13.5177C14.0576 13.3479 14.1048 13.1875 14.218 13.0365C15.1993 11.7532 15.69 10.3001 15.69 8.67718C15.69 7.39393 15.3692 6.20503 14.7275 5.11048C14.0859 4.01594 13.2084 3.14785 12.095 2.50623C10.9815 1.8646 9.78321 1.54378 8.49996 1.54378C7.2167 1.54378 6.01836 1.8646 4.90495 2.50623C3.79153 3.14785 2.91401 4.01594 2.27238 5.11048C1.63076 6.20503 1.30994 7.39393 1.30994 8.67718C1.30994 10.3001 1.8006 11.7532 2.78191 13.0365C2.89514 13.1875 2.94232 13.3479 2.92345 13.5177C2.90458 13.6875 2.81966 13.8291 2.66868 13.9423C2.51771 14.0555 2.34787 14.1027 2.15916 14.0838C1.97044 14.065 1.81947 13.9801 1.70624 13.8291C0.573955 12.3194 0.0078125 10.6021 0.0078125 8.67718C0.0078125 7.16747 0.385241 5.76155 1.1401 4.45942C1.89496 3.15729 2.92345 2.1288 4.22558 1.37394C5.52771 0.619083 6.9525 0.241654 8.49996 0.241654C10.0474 0.241654 11.4722 0.619083 12.7743 1.37394C14.0765 2.1288 15.105 3.15729 15.8598 4.45942C16.6147 5.76155 16.9921 7.16747 16.9921 8.67718ZM12.6894 4.71418C12.8404 4.82741 12.9159 4.97838 12.9159 5.1671C12.9159 5.35581 12.8404 5.50678 12.6894 5.62001L10.5381 7.82797C10.7268 8.16765 10.8211 8.52621 10.8211 8.90364C10.8211 9.54527 10.5947 10.0925 10.1418 10.5455C9.68886 10.9984 9.14158 11.2248 8.49996 11.2248C7.85833 11.2248 7.31106 10.9984 6.85814 10.5455C6.40523 10.0925 6.17877 9.54527 6.17877 8.90364C6.17877 8.26201 6.40523 7.71474 6.85814 7.26183C7.31106 6.80891 7.85833 6.58245 8.49996 6.58245C8.87738 6.58245 9.23594 6.67681 9.57563 6.86553L11.7836 4.71418C11.8968 4.56321 12.0478 4.48773 12.2365 4.48773C12.4252 4.48773 12.5762 4.56321 12.6894 4.71418ZM9.51901 8.90364C9.51901 8.63944 9.41522 8.41298 9.20763 8.22427C9.00005 8.03555 8.76416 7.9412 8.49996 7.9412C8.23575 7.9412 7.99986 8.03555 7.79228 8.22427C7.58469 8.41298 7.4809 8.63944 7.4809 8.90364C7.4809 9.16784 7.58469 9.40373 7.79228 9.61132C7.99986 9.8189 8.23575 9.9227 8.49996 9.9227C8.76416 9.9227 9.00005 9.8189 9.20763 9.61132C9.41522 9.40373 9.51901 9.16784 9.51901 8.90364Z" fill="#050B20"/>
</svg>
