<svg width="12" height="12" viewBox="0 0 12 12" fill="none" xmlns="http://www.w3.org/2000/svg">
<path d="M11.2999 0H4.19695C4.01849 0 3.87408 0.14441 3.87408 0.32287C3.87408 0.501331 4.01849 0.64574 4.19695 0.64574H10.5205L0.0943512 11.0719C-0.0317759 11.198 -0.0317759 11.4023 0.0943512 11.5284C0.1574 11.5914 0.240032 11.623 0.322634 11.623C0.405236 11.623 0.487838 11.5914 0.550916 11.5284L10.977 1.10227V7.42581C10.977 7.60427 11.1214 7.74867 11.2999 7.74867C11.4784 7.74867 11.6228 7.60427 11.6228 7.42581V0.32287C11.6228 0.14441 11.4783 0 11.2999 0Z" fill="#405FF2"/>
</svg>
