<svg width="15" height="14" viewBox="0 0 15 14" fill="none" xmlns="http://www.w3.org/2000/svg">
<g clip-path="url(#clip0_63_1225)">
<path d="M11.8575 1.42686H11.3631V0.932482C11.3631 0.78267 11.3107 0.65533 11.2058 0.550462C11.101 0.445594 10.9736 0.39316 10.8238 0.39316C10.674 0.39316 10.5467 0.445594 10.4418 0.550462C10.3369 0.65533 10.2845 0.78267 10.2845 0.932482V1.42686H5.16092V0.932482C5.16092 0.78267 5.10849 0.65533 5.00362 0.550462C4.89875 0.445594 4.77141 0.39316 4.6216 0.39316C4.47179 0.39316 4.34445 0.445594 4.23958 0.550462C4.13471 0.65533 4.08227 0.78267 4.08227 0.932482V1.42686H3.5879C3.1085 1.42686 2.67404 1.54671 2.28453 1.78641C1.89502 2.02611 1.58042 2.34071 1.34072 2.73022C1.10102 3.11973 0.981171 3.55419 0.981171 4.03359V11.2695C0.981171 11.7489 1.10102 12.1833 1.34072 12.5729C1.58042 12.9624 1.89502 13.277 2.28453 13.5167C2.67404 13.7564 3.1085 13.8762 3.5879 13.8762H11.8575C12.3369 13.8762 12.7714 13.7564 13.1609 13.5167C13.5504 13.277 13.865 12.9624 14.1047 12.5729C14.3444 12.1833 14.4642 11.7489 14.4642 11.2695V4.03359C14.4642 3.55419 14.3444 3.11973 14.1047 2.73022C13.865 2.34071 13.5504 2.02611 13.1609 1.78641C12.7714 1.54671 12.3369 1.42686 11.8575 1.42686ZM3.5879 2.50551H4.08227V3.49426C4.08227 3.64408 4.13471 3.77142 4.23958 3.87628C4.34445 3.98115 4.47179 4.03359 4.6216 4.03359C4.77141 4.03359 4.89875 3.98115 5.00362 3.87628C5.10849 3.77142 5.16092 3.64408 5.16092 3.49426V2.50551H10.2845V3.49426C10.2845 3.64408 10.3369 3.77142 10.4418 3.87628C10.5467 3.98115 10.674 4.03359 10.8238 4.03359C10.9736 4.03359 11.101 3.98115 11.2058 3.87628C11.3107 3.77142 11.3631 3.64408 11.3631 3.49426V2.50551H11.8575C12.277 2.50551 12.644 2.65532 12.9586 2.95494C13.2732 3.25456 13.4305 3.61411 13.4305 4.03359V4.52796H2.01487V4.03359C2.01487 3.61411 2.17217 3.25456 2.48678 2.95494C2.80138 2.65532 3.16842 2.50551 3.5879 2.50551ZM11.8575 12.8425H3.5879C3.16842 12.8425 2.80138 12.6852 2.48678 12.3706C2.17217 12.056 2.01487 11.689 2.01487 11.2695V5.60661H13.4305V11.2695C13.4305 11.689 13.2732 12.056 12.9586 12.3706C12.644 12.6852 12.277 12.8425 11.8575 12.8425ZM5.6553 7.67401C5.6553 7.82382 5.60286 7.94367 5.498 8.03356C5.39313 8.12345 5.26579 8.16839 5.11598 8.16839H4.08227C3.93246 8.16839 3.81261 8.12345 3.72273 8.03356C3.63284 7.94367 3.5879 7.82382 3.5879 7.67401C3.5879 7.5242 3.63284 7.39686 3.72273 7.29199C3.81261 7.18712 3.93246 7.13469 4.08227 7.13469H5.11598C5.26579 7.13469 5.39313 7.18712 5.498 7.29199C5.60286 7.39686 5.6553 7.5242 5.6553 7.67401ZM11.8575 7.67401C11.8575 7.82382 11.8126 7.94367 11.7227 8.03356C11.6328 8.12345 11.5129 8.16839 11.3631 8.16839H10.3294C10.1796 8.16839 10.0523 8.12345 9.94741 8.03356C9.84254 7.94367 9.7901 7.82382 9.7901 7.67401C9.7901 7.5242 9.84254 7.39686 9.94741 7.29199C10.0523 7.18712 10.1796 7.13469 10.3294 7.13469H11.3631C11.5129 7.13469 11.6328 7.18712 11.7227 7.29199C11.8126 7.39686 11.8575 7.5242 11.8575 7.67401ZM8.7564 7.67401C8.7564 7.82382 8.70397 7.94367 8.5991 8.03356C8.49423 8.12345 8.36689 8.16839 8.21708 8.16839H7.18338C7.06353 8.16839 6.95117 8.12345 6.8463 8.03356C6.74143 7.94367 6.689 7.82382 6.689 7.67401C6.689 7.5242 6.74143 7.39686 6.8463 7.29199C6.95117 7.18712 7.06353 7.13469 7.18338 7.13469H8.21708C8.36689 7.13469 8.49423 7.18712 8.5991 7.29199C8.70397 7.39686 8.7564 7.5242 8.7564 7.67401ZM5.6553 10.7751C5.6553 10.9249 5.60286 11.0523 5.498 11.1571C5.39313 11.262 5.26579 11.3144 5.11598 11.3144H4.08227C3.93246 11.3144 3.81261 11.262 3.72273 11.1571C3.63284 11.0523 3.5879 10.9249 3.5879 10.7751C3.5879 10.6253 3.63284 10.498 3.72273 10.3931C3.81261 10.2882 3.93246 10.2358 4.08227 10.2358H5.11598C5.26579 10.2358 5.39313 10.2882 5.498 10.3931C5.60286 10.498 5.6553 10.6253 5.6553 10.7751ZM11.8575 10.7751C11.8575 10.9249 11.8126 11.0523 11.7227 11.1571C11.6328 11.262 11.5129 11.3144 11.3631 11.3144H10.3294C10.1796 11.3144 10.0523 11.262 9.94741 11.1571C9.84254 11.0523 9.7901 10.9249 9.7901 10.7751C9.7901 10.6253 9.84254 10.498 9.94741 10.3931C10.0523 10.2882 10.1796 10.2358 10.3294 10.2358H11.3631C11.5129 10.2358 11.6328 10.2882 11.7227 10.3931C11.8126 10.498 11.8575 10.6253 11.8575 10.7751ZM8.7564 10.7751C8.7564 10.9249 8.70397 11.0523 8.5991 11.1571C8.49423 11.262 8.36689 11.3144 8.21708 11.3144H7.18338C7.06353 11.3144 6.95117 11.262 6.8463 11.1571C6.74143 11.0523 6.689 10.9249 6.689 10.7751C6.689 10.6253 6.74143 10.498 6.8463 10.3931C6.95117 10.2882 7.06353 10.2358 7.18338 10.2358H8.21708C8.36689 10.2358 8.49423 10.2882 8.5991 10.3931C8.70397 10.498 8.7564 10.6253 8.7564 10.7751Z" fill="#405FF2"/>
</g>
<defs>
<clipPath id="clip0_63_1225">
<rect width="13.4831" height="13.4831" fill="white" transform="matrix(1 0 0 -1 0.981171 13.8762)"/>
</clipPath>
</defs>
</svg>
