<svg width="15" height="15" viewBox="0 0 15 15" fill="none" xmlns="http://www.w3.org/2000/svg">
<path d="M13.15 6.09995H13.6C13.7334 6.09995 13.8417 6.04995 13.925 5.94995C14.0084 5.84995 14.05 5.74162 14.05 5.62495C14.05 5.50828 14.0084 5.39995 13.925 5.29995C13.8417 5.19995 13.7334 5.14995 13.6 5.14995H12.45L11.75 3.94995C11.5167 3.58328 11.225 3.29995 10.875 3.09995C10.525 2.89995 10.1334 2.79995 9.70004 2.79995H5.30004C4.86671 2.79995 4.47504 2.89995 4.12504 3.09995C3.77504 3.29995 3.48338 3.58328 3.25004 3.94995L2.55004 5.14995H1.40004C1.26671 5.14995 1.15838 5.19995 1.07504 5.29995C0.991709 5.39995 0.950043 5.50828 0.950043 5.62495C0.950043 5.74162 0.991709 5.84995 1.07504 5.94995C1.15838 6.04995 1.26671 6.09995 1.40004 6.09995H1.90004L1.60004 6.44995C1.16671 7.04995 0.950043 7.71662 0.950043 8.44995V10.8C0.950043 11.1666 1.08338 11.4916 1.35004 11.775C1.61671 12.0583 1.95004 12.2 2.35004 12.2H3.30004C3.66671 12.2 3.99171 12.0583 4.27504 11.775C4.55838 11.4916 4.70004 11.1666 4.70004 10.8H10.3C10.3 11.1666 10.4417 11.4916 10.725 11.775C11.0084 12.0583 11.3334 12.2 11.7 12.2H12.65C13.05 12.2 13.3834 12.0583 13.65 11.775C13.9167 11.4916 14.05 11.1666 14.05 10.8V8.44995C14.05 7.71662 13.8334 7.04995 13.4 6.44995L13.15 6.09995ZM4.05004 4.44995C4.18338 4.21662 4.35838 4.04162 4.57504 3.92495C4.79171 3.80828 5.03338 3.74995 5.30004 3.74995H9.70004C9.96671 3.74995 10.2084 3.80828 10.425 3.92495C10.6417 4.04162 10.8167 4.21662 10.95 4.44995L11.55 5.49995L11.25 5.69995C10.85 5.96662 10.4167 6.09995 9.95004 6.09995H5.05004C4.58338 6.09995 4.15004 5.96662 3.75004 5.69995L3.45004 5.49995L4.05004 4.44995ZM13.15 10.8C13.15 10.9 13.1 11 13 11.1C12.9 11.2 12.7834 11.25 12.65 11.25H11.7C11.6 11.25 11.5 11.2 11.4 11.1C11.3 11 11.25 10.9 11.25 10.8V10.3C11.25 10.1666 11.2084 10.0583 11.125 9.97495C11.0417 9.89162 10.9334 9.84995 10.8 9.84995H4.20004C4.06671 9.84995 3.95838 9.89162 3.87504 9.97495C3.79171 10.0583 3.75004 10.1666 3.75004 10.3V10.8C3.75004 10.9 3.70004 11 3.60004 11.1C3.50004 11.2 3.40004 11.25 3.30004 11.25H2.35004C2.21671 11.25 2.10004 11.2 2.00004 11.1C1.90004 11 1.85004 10.9 1.85004 10.8V8.44995C1.88338 7.91662 2.05004 7.44995 2.35004 7.04995L2.90004 6.24995L3.25004 6.49995C3.81671 6.86662 4.41671 7.04995 5.05004 7.04995H9.95004C10.5834 7.04995 11.1834 6.86662 11.75 6.49995L12.1 6.24995L12.65 7.04995C12.95 7.44995 13.1 7.91662 13.1 8.44995V10.8H13.15ZM11.25 8.44995C11.25 8.58328 11.2917 8.69162 11.375 8.77495C11.4584 8.85828 11.5667 8.89995 11.7 8.89995C11.8334 8.89995 11.95 8.85828 12.05 8.77495C12.15 8.69162 12.2 8.58328 12.2 8.44995C12.2 8.31662 12.15 8.19995 12.05 8.09995C11.95 7.99995 11.8334 7.94995 11.7 7.94995C11.5667 7.94995 11.4584 7.99995 11.375 8.09995C11.2917 8.19995 11.25 8.31662 11.25 8.44995ZM2.80004 8.44995C2.80004 8.58328 2.85004 8.69162 2.95004 8.77495C3.05004 8.85828 3.16671 8.89995 3.30004 8.89995C3.43338 8.89995 3.54171 8.85828 3.62504 8.77495C3.70838 8.69162 3.75004 8.58328 3.75004 8.44995C3.75004 8.31662 3.70838 8.19995 3.62504 8.09995C3.54171 7.99995 3.43338 7.94995 3.30004 7.94995C3.16671 7.94995 3.05004 7.99995 2.95004 8.09995C2.85004 8.19995 2.80004 8.31662 2.80004 8.44995Z" fill="#050B20"/>
</svg>
