<svg width="16" height="16" viewBox="0 0 16 16" fill="none" xmlns="http://www.w3.org/2000/svg">
<g clip-path="url(#clip0_63_1343)">
<path d="M14.878 7.06299L10.128 2.31299L11.378 1.06299C11.478 0.962988 11.528 0.829655 11.528 0.662988C11.528 0.496322 11.4697 0.354654 11.353 0.237988C11.2363 0.121322 11.103 0.0629883 10.953 0.0629883C10.803 0.0629883 10.6613 0.112988 10.528 0.212988L3.478 7.31299C2.978 7.44632 2.56134 7.72132 2.228 8.13799C1.89467 8.55465 1.728 9.02965 1.728 9.56299C1.728 9.72965 1.78634 9.87132 1.903 9.98799C2.01967 10.1047 2.16134 10.163 2.328 10.163C2.49467 10.163 2.63634 10.1047 2.753 9.98799C2.86967 9.87132 2.928 9.71299 2.928 9.51299C2.928 9.31299 2.98634 9.12132 3.103 8.93799C3.21967 8.75465 3.378 8.61299 3.578 8.51299L8.528 13.463C8.96134 13.8963 9.503 14.113 10.153 14.113C10.803 14.113 11.3613 13.8963 11.828 13.463L14.878 10.413C15.3447 9.94632 15.578 9.38799 15.578 8.73799C15.578 8.08799 15.3447 7.52965 14.878 7.06299ZM14.078 9.56299L10.978 12.613C10.778 12.8463 10.5113 12.963 10.178 12.963C9.84467 12.963 9.56134 12.8463 9.328 12.613L5.078 8.36299H11.578C11.7447 8.36299 11.8863 8.31299 12.003 8.21299C12.1197 8.11299 12.178 7.97965 12.178 7.81299C12.178 7.64632 12.1197 7.50465 12.003 7.38799C11.8863 7.27132 11.7447 7.21299 11.578 7.21299H5.228L9.278 3.16299L14.078 7.91299C14.3113 8.14632 14.428 8.42132 14.428 8.73799C14.428 9.05466 14.3113 9.32965 14.078 9.56299ZM3.378 11.763C3.178 11.463 2.978 11.1963 2.778 10.963C2.64467 10.7963 2.48634 10.713 2.303 10.713C2.11967 10.713 1.978 10.7963 1.878 10.963C1.64467 11.1963 1.428 11.463 1.228 11.763C0.79467 12.4297 0.578003 12.9463 0.578003 13.313C0.578003 13.813 0.74467 14.2297 1.078 14.563C1.41134 14.8963 1.81967 15.063 2.303 15.063C2.78634 15.063 3.19467 14.8963 3.528 14.563C3.86134 14.2297 4.028 13.813 4.028 13.313C4.028 12.9463 3.81134 12.4297 3.378 11.763ZM2.328 13.913C2.16134 13.913 2.01967 13.8547 1.903 13.738C1.78634 13.6213 1.73634 13.488 1.753 13.338C1.76967 13.188 1.928 12.8797 2.228 12.413L2.328 12.313L2.378 12.413C2.678 12.8797 2.83634 13.188 2.853 13.338C2.86967 13.488 2.81967 13.6213 2.703 13.738C2.58634 13.8547 2.46134 13.913 2.328 13.913Z" fill="#050B20"/>
</g>
<defs>
<clipPath id="clip0_63_1343">
<rect width="15" height="15" fill="white" transform="matrix(1 0 0 -1 0.577942 15.063)"/>
</clipPath>
</defs>
</svg>
