<svg width="13" height="12" viewBox="0 0 13 12" fill="none" xmlns="http://www.w3.org/2000/svg">
<g clip-path="url(#clip0_63_1256)">
<path d="M5.05022 5.60024C4.94355 5.60024 4.85022 5.56024 4.77022 5.48024C4.69022 5.40024 4.65022 5.30691 4.65022 5.20024V4.00024C4.62355 3.84024 4.68355 3.71358 4.83022 3.62024C4.97689 3.52691 5.12355 3.52691 5.27022 3.62024C5.41689 3.71358 5.47689 3.84024 5.45022 4.00024V5.20024C5.45022 5.30691 5.41022 5.40024 5.33022 5.48024C5.25022 5.56024 5.15689 5.60024 5.05022 5.60024ZM6.65022 5.60024C6.54355 5.60024 6.45022 5.56024 6.37022 5.48024C6.29022 5.40024 6.25022 5.30691 6.25022 5.20024V3.60024C6.25022 3.49358 6.29022 3.40691 6.37022 3.34024C6.45022 3.27358 6.54355 3.24024 6.65022 3.24024C6.75689 3.24024 6.85022 3.27358 6.93022 3.34024C7.01022 3.40691 7.05022 3.49358 7.05022 3.60024V5.20024C7.05022 5.30691 7.01022 5.40024 6.93022 5.48024C6.85022 5.56024 6.75689 5.60024 6.65022 5.60024ZM8.25022 5.60024C8.14355 5.60024 8.05022 5.56024 7.97022 5.48024C7.89022 5.40024 7.85022 5.30691 7.85022 5.20024V2.80024C7.82355 2.64024 7.88355 2.51358 8.03022 2.42024C8.17689 2.32691 8.32355 2.32691 8.47022 2.42024C8.61689 2.51358 8.67689 2.64024 8.65022 2.80024V5.20024C8.65022 5.30691 8.61022 5.40024 8.53022 5.48024C8.45022 5.56024 8.35689 5.60024 8.25022 5.60024ZM9.85022 12.0002H3.45022C2.99689 12.0002 2.61689 11.8469 2.31022 11.5402C2.00355 11.2336 1.85022 10.8536 1.85022 10.4002V3.16024C1.85022 2.86691 1.91022 2.58024 2.03022 2.30024C2.15022 2.02024 2.33022 1.78691 2.57022 1.60024L3.97022 0.480245C4.31689 0.160244 4.73022 0.000244141 5.21022 0.000244141H9.85022C10.3036 0.000244141 10.6836 0.153578 10.9902 0.460244C11.2969 0.766912 11.4502 1.14691 11.4502 1.60024V10.4002C11.4502 10.8536 11.2969 11.2336 10.9902 11.5402C10.6836 11.8469 10.3036 12.0002 9.85022 12.0002ZM5.21022 0.800244C4.94355 0.800244 4.70355 0.893578 4.49022 1.08024L3.09022 2.24024C2.79689 2.48024 2.65022 2.78691 2.65022 3.16024V10.4002C2.65022 10.6136 2.73022 10.8002 2.89022 10.9602C3.05022 11.1202 3.23689 11.2002 3.45022 11.2002H9.85022C10.0636 11.2002 10.2502 11.1202 10.4102 10.9602C10.5702 10.8002 10.6502 10.6136 10.6502 10.4002V1.60024C10.6502 1.38691 10.5702 1.20024 10.4102 1.04024C10.2502 0.880244 10.0636 0.800244 9.85022 0.800244H5.21022ZM9.05022 9.60024H4.25022C4.09022 9.62691 3.96355 9.56691 3.87022 9.42024C3.77689 9.27358 3.77689 9.12691 3.87022 8.98024C3.96355 8.83358 4.09022 8.77358 4.25022 8.80024H9.05022C9.21022 8.77358 9.33689 8.83358 9.43022 8.98024C9.52355 9.12691 9.52355 9.27358 9.43022 9.42024C9.33689 9.56691 9.21022 9.62691 9.05022 9.60024ZM9.05022 7.60024H4.25022C4.14355 7.60024 4.05689 7.56024 3.99022 7.48024C3.92355 7.40024 3.89022 7.30691 3.89022 7.20024C3.89022 7.09358 3.92355 7.00024 3.99022 6.92024C4.05689 6.84024 4.14355 6.80024 4.25022 6.80024H9.05022C9.21022 6.77358 9.33689 6.83358 9.43022 6.98024C9.52355 7.12691 9.52355 7.27358 9.43022 7.42024C9.33689 7.56691 9.21022 7.62691 9.05022 7.60024Z" fill="#050B20"/>
</g>
<defs>
<clipPath id="clip0_63_1256">
<rect width="12" height="12" fill="white" transform="matrix(1 0 0 -1 0.650269 12)"/>
</clipPath>
</defs>
</svg>
