<svg width="16" height="16" viewBox="0 0 16 16" fill="none" xmlns="http://www.w3.org/2000/svg">
<g clip-path="url(#clip0_63_1331)">
<path d="M15.1779 6.58125L9.52794 0.93125C9.26128 0.664583 8.94461 0.53125 8.57794 0.53125H1.87794C1.51128 0.53125 1.20294 0.65625 0.952942 0.90625C0.702942 1.15625 0.577942 1.46458 0.577942 1.83125V14.2312C0.577942 14.5979 0.702942 14.9062 0.952942 15.1562C1.20294 15.4062 1.51128 15.5312 1.87794 15.5312H8.97794C9.14461 15.5312 9.26128 15.4479 9.32794 15.2812C9.82794 14.2812 10.5613 13.4813 11.5279 12.8812C12.4946 12.2812 13.5446 11.9813 14.6779 11.9813H15.1279C15.2613 11.9813 15.3696 11.9396 15.4529 11.8563C15.5363 11.7729 15.5779 11.6646 15.5779 11.5312V7.53125C15.5779 7.16458 15.4446 6.84792 15.1779 6.58125ZM14.6779 11.1312C13.3779 11.1312 12.1779 11.4646 11.0779 12.1312C10.0779 12.7646 9.27794 13.5979 8.67794 14.6312H1.87794C1.77794 14.6312 1.68628 14.5896 1.60294 14.5063C1.51961 14.4229 1.47794 14.3312 1.47794 14.2312V1.83125C1.47794 1.73125 1.51961 1.63958 1.60294 1.55625C1.68628 1.47292 1.77794 1.43125 1.87794 1.43125H8.57794C8.71128 1.43125 8.82794 1.46458 8.92794 1.53125L14.5779 7.18125C14.6446 7.28125 14.6779 7.39792 14.6779 7.53125V11.1312ZM13.6779 7.58125L8.52794 2.43125C8.46128 2.33125 8.36128 2.28125 8.22794 2.28125H2.77794C2.64461 2.28125 2.53628 2.32292 2.45294 2.40625C2.36961 2.48958 2.32794 2.59792 2.32794 2.73125V8.03125C2.32794 8.16458 2.36961 8.27292 2.45294 8.35625C2.53628 8.43958 2.64461 8.48125 2.77794 8.48125H13.3279C13.4613 8.48125 13.5696 8.43958 13.6529 8.35625C13.7363 8.27292 13.7779 8.16458 13.7779 8.03125V7.88125C13.7779 7.74792 13.7446 7.64792 13.6779 7.58125ZM3.22794 7.58125V3.18125H8.02794L12.4279 7.58125H3.22794ZM5.42794 10.2312H2.77794C2.64461 10.2312 2.53628 10.2729 2.45294 10.3562C2.36961 10.4396 2.32794 10.5479 2.32794 10.6813V11.1312C2.32794 11.5979 2.50294 12.0062 2.85294 12.3563C3.20294 12.7062 3.61961 12.8812 4.10294 12.8812C4.58628 12.8812 4.99461 12.7062 5.32794 12.3563C5.66128 12.0062 5.82794 11.5979 5.82794 11.1312V10.6813C5.82794 10.5479 5.78628 10.4396 5.70294 10.3562C5.61961 10.2729 5.52794 10.2312 5.42794 10.2312ZM4.07794 11.9813C3.84461 11.9813 3.64461 11.8979 3.47794 11.7313C3.31128 11.5646 3.22794 11.3479 3.22794 11.0812H4.97794C4.97794 11.3479 4.89461 11.5646 4.72794 11.7313C4.56128 11.8979 4.34461 11.9813 4.07794 11.9813Z" fill="#050B20"/>
</g>
<defs>
<clipPath id="clip0_63_1331">
<rect width="15" height="15" fill="white" transform="matrix(1 0 0 -1 0.577942 15.5312)"/>
</clipPath>
</defs>
</svg>
