<svg width="16" height="16" viewBox="0 0 16 16" fill="none" xmlns="http://www.w3.org/2000/svg">
<g clip-path="url(#clip0_63_1326)">
<path d="M15.1279 5.86602H13.7279C13.5946 5.86602 13.4779 5.91602 13.3779 6.01602C13.2779 6.11602 13.2279 6.23268 13.2279 6.36602V6.81602H12.7779V6.36602C12.7779 6.23268 12.7279 6.12435 12.6279 6.04102C12.5279 5.95768 12.4113 5.91602 12.2779 5.91602H11.5779L10.2779 4.61602C10.2446 4.58268 10.1946 4.54935 10.1279 4.51602C10.0613 4.48268 10.0113 4.46602 9.97794 4.46602H8.52794V3.56602H9.47794C9.61128 3.56602 9.72794 3.51602 9.82794 3.41602C9.92794 3.31602 9.97794 3.19935 9.97794 3.06602C9.97794 2.93268 9.92794 2.82435 9.82794 2.74102C9.72794 2.65768 9.61128 2.61602 9.47794 2.61602H5.27794C5.14461 2.61602 5.02794 2.65768 4.92794 2.74102C4.82794 2.82435 4.77794 2.93268 4.77794 3.06602C4.77794 3.19935 4.82794 3.31602 4.92794 3.41602C5.02794 3.51602 5.14461 3.56602 5.27794 3.56602H6.22794V4.46602H4.77794L4.57794 4.56602L4.42794 4.66602L3.62794 5.86602H2.47794C2.34461 5.86602 2.22794 5.91602 2.12794 6.01602C2.02794 6.11602 1.97794 6.23268 1.97794 6.36602V7.76602H1.52794V6.36602C1.52794 6.23268 1.47794 6.12435 1.37794 6.04102C1.27794 5.95768 1.16128 5.90768 1.02794 5.89102C0.894609 5.87435 0.786275 5.91602 0.702942 6.01602C0.619609 6.11602 0.577942 6.23268 0.577942 6.36602V10.566C0.577942 10.6993 0.619609 10.816 0.702942 10.916C0.786275 11.016 0.894609 11.066 1.02794 11.066C1.16128 11.066 1.27794 11.016 1.37794 10.916C1.47794 10.816 1.52794 10.6993 1.52794 10.566V8.71602H1.97794V10.566C1.97794 10.6993 2.02794 10.816 2.12794 10.916C2.22794 11.016 2.32794 11.066 2.42794 11.066H3.57794L4.37794 12.666L4.47794 12.766L4.57794 12.866L4.77794 12.916H10.4279C10.4946 12.916 10.5613 12.8993 10.6279 12.866L10.7779 12.766L12.5279 10.566H13.2279V11.066C13.2279 11.1993 13.2779 11.3077 13.3779 11.391C13.4779 11.4743 13.5946 11.516 13.7279 11.516H15.1279C15.2613 11.516 15.3696 11.4743 15.4529 11.391C15.5363 11.3077 15.5779 11.1993 15.5779 11.066V6.36602C15.5779 6.23268 15.5363 6.12435 15.4529 6.04102C15.3696 5.95768 15.2613 5.91602 15.1279 5.91602V5.86602ZM14.6279 10.566H14.1779V10.116C14.1779 9.98268 14.1279 9.86602 14.0279 9.76602C13.9279 9.66602 13.8279 9.61602 13.7279 9.61602L12.2779 9.66602L12.0779 9.71602L11.9279 9.81602L10.1779 11.966H5.07794L4.27794 10.316L4.17794 10.216L3.92794 10.116H2.92794V6.81602H3.87794H4.02794L4.17794 6.71602L5.02794 5.41602H6.67794C6.81128 5.41602 6.91961 5.37435 7.00294 5.29102C7.08628 5.20768 7.12794 5.09935 7.12794 4.96602V3.56602H7.62794V4.96602C7.62794 5.09935 7.66961 5.20768 7.75294 5.29102C7.83628 5.37435 7.94461 5.41602 8.07794 5.41602H9.77794L11.0279 6.66602C11.0613 6.73268 11.1113 6.77435 11.1779 6.79102C11.2446 6.80768 11.3113 6.81602 11.3779 6.81602H11.8279V7.31602C11.8279 7.44935 11.8696 7.55768 11.9529 7.64102C12.0363 7.72435 12.1446 7.76602 12.2779 7.76602H13.7279C13.8279 7.76602 13.9279 7.72435 14.0279 7.64102C14.1279 7.55768 14.1779 7.44935 14.1779 7.31602V6.81602H14.6279V10.566ZM9.72794 6.91602C9.62794 6.84935 9.51961 6.82435 9.40294 6.84102C9.28627 6.85768 9.17794 6.91602 9.07794 7.01602L7.17794 9.91602L6.02794 9.01602C5.92794 8.94935 5.81128 8.92435 5.67794 8.94102C5.54461 8.95768 5.43628 9.01602 5.35294 9.11602C5.26961 9.21602 5.23628 9.33268 5.25294 9.46602C5.26961 9.59935 5.32794 9.69935 5.42794 9.76602L6.97794 10.966C7.07794 11.0327 7.17794 11.066 7.27794 11.066H7.32794C7.46128 11.0327 7.56128 10.9493 7.62794 10.816L9.87794 7.56602C9.94461 7.46602 9.96961 7.34935 9.95294 7.21602C9.93628 7.08268 9.86128 6.98268 9.72794 6.91602Z" fill="#050B20"/>
</g>
<defs>
<clipPath id="clip0_63_1326">
<rect width="15" height="15" fill="white" transform="matrix(1 0 0 -1 0.577942 15.2656)"/>
</clipPath>
</defs>
</svg>
