<svg width="15" height="14" viewBox="0 0 15 14" fill="none" xmlns="http://www.w3.org/2000/svg">
<g clip-path="url(#clip0_63_1238)">
<path d="M8.9657 2.79745C8.9657 2.6776 8.92824 2.58022 8.85334 2.50532C8.77843 2.43041 8.68106 2.39296 8.56121 2.39296H4.33651C4.21666 2.39296 4.11929 2.43041 4.04438 2.50532C3.96947 2.58022 3.93202 2.6776 3.93202 2.79745V6.16821C3.93202 6.28806 3.96947 6.39293 4.04438 6.48282C4.11929 6.57271 4.21666 6.61765 4.33651 6.61765H8.56121C8.68106 6.61765 8.77843 6.57271 8.85334 6.48282C8.92824 6.39293 8.9657 6.28806 8.9657 6.16821V2.79745ZM8.11177 5.76372H4.741V3.24688H8.11177V5.76372ZM13.8196 3.24688L12.1117 2.4379C12.0219 2.37798 11.917 2.36299 11.7971 2.39296C11.6773 2.42292 11.5949 2.49033 11.55 2.5952C11.505 2.70007 11.4975 2.81243 11.5275 2.93228C11.5574 3.05213 11.6323 3.12703 11.7522 3.157L12.3814 3.51655L12.3365 3.65138C12.3365 3.92104 12.4189 4.16074 12.5837 4.37047C12.7484 4.58021 12.9507 4.73002 13.1904 4.81991V9.94347C13.1904 10.0633 13.1454 10.1682 13.0556 10.2581C12.9657 10.348 12.8683 10.3929 12.7634 10.3929C12.6586 10.3929 12.5612 10.348 12.4713 10.2581C12.3814 10.1682 12.3365 10.0633 12.3365 9.94347V6.57271C12.3365 6.09331 12.1642 5.65885 11.8196 5.26934C11.475 4.87983 11.093 4.64013 10.6736 4.55025V1.94352C10.6736 1.49409 10.5088 1.10458 10.1792 0.774989C9.84959 0.445403 9.46008 0.280611 9.01064 0.280611H3.93202C3.48259 0.280611 3.08558 0.445403 2.74102 0.774989C2.39645 1.10458 2.22417 1.49409 2.22417 1.94352V11.3817L1.6399 11.6963C1.46013 11.7862 1.37024 11.906 1.37024 12.0558V13.3142C1.37024 13.4341 1.41518 13.539 1.50507 13.6288C1.59496 13.7187 1.69983 13.7637 1.81967 13.7637H11.078C11.1979 13.7637 11.2953 13.7187 11.3702 13.6288C11.4451 13.539 11.4825 13.4341 11.4825 13.3142V12.0558C11.4825 11.906 11.4076 11.7862 11.2578 11.6963L10.6736 11.3817V5.40417C10.8833 5.49406 11.0706 5.65136 11.2353 5.87608C11.4001 6.1008 11.4825 6.33301 11.4825 6.57271V9.94347C11.4825 10.303 11.6099 10.6101 11.8646 10.8648C12.1192 11.1195 12.4189 11.2468 12.7634 11.2468C13.108 11.2468 13.4076 11.1195 13.6623 10.8648C13.917 10.6101 14.0443 10.303 14.0443 9.94347V3.65138C14.0443 3.4716 13.9694 3.33677 13.8196 3.24688ZM10.6736 12.9097H2.22417V12.3255L2.85338 12.0109C3.00319 11.9509 3.07809 11.8311 3.07809 11.6513V1.94352C3.07809 1.73378 3.16049 1.54652 3.32528 1.38173C3.49008 1.21693 3.69232 1.13454 3.93202 1.13454H9.01064C9.22038 1.13454 9.40764 1.21693 9.57244 1.38173C9.73723 1.54652 9.81962 1.73378 9.81962 1.94352V11.6513C9.81962 11.8311 9.89453 11.9509 10.0443 12.0109L10.6736 12.3255V12.9097Z" fill="#405FF2"/>
</g>
<defs>
<clipPath id="clip0_63_1238">
<rect width="13.4831" height="13.4831" fill="white" transform="matrix(1 0 0 -1 0.965759 13.7637)"/>
</clipPath>
</defs>
</svg>
