<svg width="15" height="15" viewBox="0 0 15 15" fill="none" xmlns="http://www.w3.org/2000/svg">
<g clip-path="url(#clip0_63_1296)">
<path d="M8.89998 2.8C8.89998 2.66667 8.85832 2.55833 8.77498 2.475C8.69165 2.39167 8.58332 2.35 8.44998 2.35H3.74998C3.61665 2.35 3.50832 2.39167 3.42498 2.475C3.34165 2.55833 3.29998 2.66667 3.29998 2.8V6.55C3.29998 6.68333 3.34165 6.8 3.42498 6.9C3.50832 7 3.61665 7.05 3.74998 7.05H8.44998C8.58332 7.05 8.69165 7 8.77498 6.9C8.85832 6.8 8.89998 6.68333 8.89998 6.55V2.8ZM7.94998 6.1H4.19998V3.3H7.94998V6.1ZM14.3 3.3L12.4 2.4C12.3 2.33333 12.1833 2.31667 12.05 2.35C11.9166 2.38333 11.825 2.45833 11.775 2.575C11.725 2.69167 11.7166 2.81667 11.75 2.95C11.7833 3.08333 11.8666 3.16667 12 3.2L12.7 3.6L12.65 3.75C12.65 4.05 12.7416 4.31667 12.925 4.55C13.1083 4.78333 13.3333 4.95 13.6 5.05V10.75C13.6 10.8833 13.55 11 13.45 11.1C13.35 11.2 13.2416 11.25 13.125 11.25C13.0083 11.25 12.9 11.2 12.8 11.1C12.7 11 12.65 10.8833 12.65 10.75V7C12.65 6.46667 12.4583 5.98333 12.075 5.55C11.6916 5.11667 11.2666 4.85 10.8 4.75V1.85C10.8 1.35 10.6166 0.916666 10.25 0.55C9.88332 0.183333 9.44998 0 8.94998 0H3.29998C2.79998 0 2.35832 0.183333 1.97498 0.55C1.59165 0.916666 1.39998 1.35 1.39998 1.85V12.35L0.749982 12.7C0.549982 12.8 0.449982 12.9333 0.449982 13.1V14.5C0.449982 14.6333 0.499982 14.75 0.599982 14.85C0.699982 14.95 0.816648 15 0.949982 15H11.25C11.3833 15 11.4916 14.95 11.575 14.85C11.6583 14.75 11.7 14.6333 11.7 14.5V13.1C11.7 12.9333 11.6166 12.8 11.45 12.7L10.8 12.35V5.7C11.0333 5.8 11.2416 5.975 11.425 6.225C11.6083 6.475 11.7 6.73333 11.7 7V10.75C11.7 11.15 11.8416 11.4917 12.125 11.775C12.4083 12.0583 12.7416 12.2 13.125 12.2C13.5083 12.2 13.8417 12.0583 14.125 11.775C14.4083 11.4917 14.55 11.15 14.55 10.75V3.75C14.55 3.55 14.4667 3.4 14.3 3.3ZM10.8 14.05H1.39998V13.4L2.09998 13.05C2.26665 12.9833 2.34998 12.85 2.34998 12.65V1.85C2.34998 1.61667 2.44165 1.40833 2.62498 1.225C2.80832 1.04167 3.03332 0.95 3.29998 0.95H8.94998C9.18332 0.95 9.39165 1.04167 9.57498 1.225C9.75832 1.40833 9.84998 1.61667 9.84998 1.85V12.65C9.84998 12.85 9.93332 12.9833 10.1 13.05L10.8 13.4V14.05Z" fill="#050B20"/>
</g>
<defs>
<clipPath id="clip0_63_1296">
<rect width="15" height="15" fill="white" transform="matrix(1 0 0 -1 0 15)"/>
</clipPath>
</defs>
</svg>
