<svg width="15" height="16" viewBox="0 0 15 16" fill="none" xmlns="http://www.w3.org/2000/svg">
<path d="M2.50002 1.93135C2.03335 1.93135 1.63335 2.09801 1.30002 2.43135C0.966685 2.76468 0.800018 3.17301 0.800018 3.65635C0.800018 4.13968 0.966685 4.54801 1.30002 4.88135C1.63335 5.21468 2.03335 5.38135 2.50002 5.38135C2.96669 5.38135 3.36668 5.21468 3.70002 4.88135C4.03335 4.54801 4.20002 4.13968 4.20002 3.65635C4.20002 3.17301 4.03335 2.76468 3.70002 2.43135C3.36668 2.09801 2.96669 1.93135 2.50002 1.93135ZM2.50002 2.88135C2.70002 2.88135 2.88335 2.95635 3.05002 3.10635C3.21669 3.25635 3.30002 3.43968 3.30002 3.65635C3.30002 3.87301 3.21669 4.05635 3.05002 4.20635C2.88335 4.35635 2.70002 4.43135 2.50002 4.43135C2.30002 4.43135 2.11669 4.35635 1.95002 4.20635C1.78335 4.05635 1.70002 3.87301 1.70002 3.65635C1.70002 3.43968 1.78335 3.25635 1.95002 3.10635C2.11669 2.95635 2.30002 2.88135 2.50002 2.88135ZM2.50002 10.6813C2.03335 10.6813 1.63335 10.848 1.30002 11.1813C0.966685 11.5147 0.800018 11.923 0.800018 12.4063C0.800018 12.8897 0.966685 13.298 1.30002 13.6313C1.63335 13.9647 2.03335 14.1313 2.50002 14.1313C2.96669 14.1313 3.36668 13.9647 3.70002 13.6313C4.03335 13.298 4.20002 12.8897 4.20002 12.4063C4.20002 11.923 4.03335 11.5147 3.70002 11.1813C3.36668 10.848 2.96669 10.6813 2.50002 10.6813ZM2.50002 11.6313C2.70002 11.6313 2.88335 11.7063 3.05002 11.8563C3.21669 12.0063 3.30002 12.1897 3.30002 12.4063C3.30002 12.623 3.21669 12.8063 3.05002 12.9563C2.88335 13.1063 2.70002 13.1813 2.50002 13.1813C2.30002 13.1813 2.11669 13.1063 1.95002 12.9563C1.78335 12.8063 1.70002 12.623 1.70002 12.4063C1.70002 12.1897 1.78335 12.0063 1.95002 11.8563C2.11669 11.7063 2.30002 11.6313 2.50002 11.6313ZM7.50002 1.93135C7.03335 1.93135 6.63335 2.09801 6.30002 2.43135C5.96669 2.76468 5.80002 3.17301 5.80002 3.65635C5.80002 4.13968 5.96669 4.54801 6.30002 4.88135C6.63335 5.21468 7.03335 5.38135 7.50002 5.38135C7.96669 5.38135 8.36668 5.21468 8.70002 4.88135C9.03335 4.54801 9.20002 4.13968 9.20002 3.65635C9.20002 3.17301 9.03335 2.76468 8.70002 2.43135C8.36668 2.09801 7.96669 1.93135 7.50002 1.93135ZM7.50002 2.88135C7.70002 2.88135 7.88335 2.95635 8.05002 3.10635C8.21669 3.25635 8.30002 3.43968 8.30002 3.65635C8.30002 3.87301 8.21669 4.05635 8.05002 4.20635C7.88335 4.35635 7.70002 4.43135 7.50002 4.43135C7.30002 4.43135 7.11668 4.35635 6.95002 4.20635C6.78335 4.05635 6.70002 3.87301 6.70002 3.65635C6.70002 3.43968 6.78335 3.25635 6.95002 3.10635C7.11668 2.95635 7.30002 2.88135 7.50002 2.88135ZM7.50002 10.6813C7.03335 10.6813 6.63335 10.848 6.30002 11.1813C5.96669 11.5147 5.80002 11.923 5.80002 12.4063C5.80002 12.8897 5.96669 13.298 6.30002 13.6313C6.63335 13.9647 7.03335 14.1313 7.50002 14.1313C7.96669 14.1313 8.36668 13.9647 8.70002 13.6313C9.03335 13.298 9.20002 12.8897 9.20002 12.4063C9.20002 11.923 9.03335 11.5147 8.70002 11.1813C8.36668 10.848 7.96669 10.6813 7.50002 10.6813ZM7.50002 11.6313C7.70002 11.6313 7.88335 11.7063 8.05002 11.8563C8.21669 12.0063 8.30002 12.1897 8.30002 12.4063C8.30002 12.623 8.21669 12.8063 8.05002 12.9563C7.88335 13.1063 7.70002 13.1813 7.50002 13.1813C7.30002 13.1813 7.11668 13.1063 6.95002 12.9563C6.78335 12.8063 6.70002 12.623 6.70002 12.4063C6.70002 12.1897 6.78335 12.0063 6.95002 11.8563C7.11668 11.7063 7.30002 11.6313 7.50002 11.6313ZM12.5 1.93135C12.0334 1.93135 11.6334 2.09801 11.3 2.43135C10.9667 2.76468 10.8 3.17301 10.8 3.65635C10.8 4.13968 10.9667 4.54801 11.3 4.88135C11.6334 5.21468 12.0334 5.38135 12.5 5.38135C12.9667 5.38135 13.3667 5.21468 13.7 4.88135C14.0334 4.54801 14.2 4.13968 14.2 3.65635C14.2 3.17301 14.0334 2.76468 13.7 2.43135C13.3667 2.09801 12.9667 1.93135 12.5 1.93135ZM12.5 2.88135C12.7 2.88135 12.8834 2.95635 13.05 3.10635C13.2167 3.25635 13.3 3.43968 13.3 3.65635C13.3 3.87301 13.2167 4.05635 13.05 4.20635C12.8834 4.35635 12.7 4.43135 12.5 4.43135C12.3 4.43135 12.1167 4.35635 11.95 4.20635C11.7834 4.05635 11.7 3.87301 11.7 3.65635C11.7 3.43968 11.7834 3.25635 11.95 3.10635C12.1167 2.95635 12.3 2.88135 12.5 2.88135ZM12.5 10.6813C12.0334 10.6813 11.6334 10.848 11.3 11.1813C10.9667 11.5147 10.8 11.923 10.8 12.4063C10.8 12.8897 10.9667 13.298 11.3 13.6313C11.6334 13.9647 12.0334 14.1313 12.5 14.1313C12.9667 14.1313 13.3667 13.9647 13.7 13.6313C14.0334 13.298 14.2 12.8897 14.2 12.4063C14.2 11.923 14.0334 11.5147 13.7 11.1813C13.3667 10.848 12.9667 10.6813 12.5 10.6813ZM12.5 11.6313C12.7 11.6313 12.8834 11.7063 13.05 11.8563C13.2167 12.0063 13.3 12.1897 13.3 12.4063C13.3 12.623 13.2167 12.8063 13.05 12.9563C12.8834 13.1063 12.7 13.1813 12.5 13.1813C12.3 13.1813 12.1167 13.1063 11.95 12.9563C11.7834 12.8063 11.7 12.623 11.7 12.4063C11.7 12.1897 11.7834 12.0063 11.95 11.8563C12.1167 11.7063 12.3 11.6313 12.5 11.6313ZM2.05002 4.88135V11.1313C2.05002 11.2647 2.09169 11.3813 2.17502 11.4813C2.25835 11.5813 2.36669 11.6313 2.50002 11.6313C2.63335 11.6313 2.74169 11.5813 2.82502 11.4813C2.90835 11.3813 2.95002 11.2813 2.95002 11.1813V4.88135C2.95002 4.78135 2.90835 4.68135 2.82502 4.58135C2.74169 4.48135 2.63335 4.43135 2.50002 4.43135C2.36669 4.43135 2.25835 4.48135 2.17502 4.58135C2.09169 4.68135 2.05002 4.78135 2.05002 4.88135ZM7.05002 4.88135V11.1313C7.05002 11.2647 7.09169 11.3813 7.17502 11.4813C7.25835 11.5813 7.36668 11.6313 7.50002 11.6313C7.63335 11.6313 7.74168 11.5813 7.82502 11.4813C7.90835 11.3813 7.95002 11.2813 7.95002 11.1813V4.88135C7.95002 4.78135 7.90835 4.68135 7.82502 4.58135C7.74168 4.48135 7.63335 4.43135 7.50002 4.43135C7.36668 4.43135 7.25835 4.48135 7.17502 4.58135C7.09169 4.68135 7.05002 4.78135 7.05002 4.88135ZM12.05 4.88135V7.38135C12.05 7.44801 12.0334 7.49801 12 7.53135C11.9667 7.56468 11.9334 7.58135 11.9 7.58135H2.50002C2.36669 7.58135 2.25835 7.62301 2.17502 7.70635C2.09169 7.78968 2.05002 7.89801 2.05002 8.03135C2.05002 8.16468 2.09169 8.27301 2.17502 8.35635C2.25835 8.43968 2.36669 8.48135 2.50002 8.48135H11.9C12.2 8.48135 12.45 8.38135 12.65 8.18135C12.85 7.98135 12.95 7.71468 12.95 7.38135V4.93135C12.95 4.79801 12.9084 4.68135 12.825 4.58135C12.7417 4.48135 12.6334 4.43135 12.5 4.43135C12.3667 4.43135 12.2584 4.48135 12.175 4.58135C12.0917 4.68135 12.05 4.78135 12.05 4.88135Z" fill="#050B20"/>
</svg>
