<svg width="16" height="16" viewBox="0 0 16 16" fill="none" xmlns="http://www.w3.org/2000/svg">
<g clip-path="url(#clip0_229_5301)">
<path d="M6.93331 15.4666C6.43554 15.4666 6.02665 15.3066 5.70665 14.9866L1.01331 10.2932C0.657758 9.93766 0.47998 9.51989 0.47998 9.03989C0.47998 8.55989 0.657758 8.14211 1.01331 7.78655L7.30665 1.49322C7.9822 0.817664 8.79998 0.479887 9.75998 0.479887H13.76C14.2578 0.479887 14.6755 0.657664 15.0133 1.01322C15.3511 1.36878 15.52 1.77766 15.52 2.23989V6.23989C15.52 7.19989 15.1822 7.99989 14.5066 8.63989L8.15998 14.9866C7.83998 15.3066 7.43109 15.4666 6.93331 15.4666ZM9.75998 1.65322C9.11998 1.65322 8.58665 1.88433 8.15998 2.34655L1.86665 8.63989C1.72443 8.74655 1.65331 8.87989 1.65331 9.03989C1.65331 9.19989 1.72443 9.351 1.86665 9.49322L6.50665 14.1332C6.61331 14.2754 6.75554 14.3466 6.93331 14.3466C7.11109 14.3466 7.25331 14.2754 7.35998 14.1332L13.6533 7.83989C14.1155 7.41322 14.3466 6.87989 14.3466 6.23989V2.23989C14.3466 2.09766 14.2844 1.96433 14.16 1.83989C14.0355 1.71544 13.9022 1.65322 13.76 1.65322H9.75998ZM11.2533 6.45322C10.7911 6.45322 10.3822 6.27544 10.0266 5.91989C9.67109 5.56433 9.49331 5.14655 9.49331 4.66655C9.49331 4.18655 9.67109 3.77766 10.0266 3.43989C10.3822 3.10211 10.8 2.93322 11.28 2.93322C11.76 2.93322 12.1689 3.10211 12.5066 3.43989C12.8444 3.77766 13.0133 4.18655 13.0133 4.66655C13.0133 5.14655 12.8444 5.56433 12.5066 5.91989C12.1689 6.27544 11.7511 6.45322 11.2533 6.45322ZM11.2533 4.10655C11.1111 4.10655 10.9778 4.15989 10.8533 4.26655C10.7289 4.37322 10.6666 4.50655 10.6666 4.66655C10.6666 4.82655 10.7289 4.96878 10.8533 5.09322C10.9778 5.21766 11.12 5.27989 11.28 5.27989C11.44 5.27989 11.5733 5.21766 11.68 5.09322C11.7866 4.96878 11.84 4.82655 11.84 4.66655C11.84 4.50655 11.7866 4.37322 11.68 4.26655C11.5733 4.15989 11.4311 4.10655 11.2533 4.10655Z" fill="white"/>
</g>
<defs>
<clipPath id="clip0_229_5301">
<rect width="16" height="16" fill="white" transform="matrix(1 0 0 -1 0 16)"/>
</clipPath>
</defs>
</svg>
