<svg width="16" height="16" viewBox="0 0 16 16" fill="none" xmlns="http://www.w3.org/2000/svg">
<path fill-rule="evenodd" clip-rule="evenodd" d="M8.34084 3.10245C5.85717 3.10245 3.82657 5.16287 3.82657 7.726C3.82657 9.01845 4.34351 10.4498 5.18941 11.5551C6.03749 12.6633 7.15997 13.3763 8.34084 13.3763C9.52174 13.3763 10.6442 12.6633 11.4923 11.5551C12.3381 10.4498 12.8551 9.01845 12.8551 7.726C12.8551 5.16287 10.8245 3.10245 8.34084 3.10245ZM2.89258 7.726C2.89258 4.66626 5.32235 2.16846 8.34084 2.16846C11.3593 2.16846 13.7891 4.66626 13.7891 7.726C13.7891 9.24502 13.191 10.8723 12.234 12.1227C11.2792 13.3703 9.91102 14.3103 8.34084 14.3103C6.77063 14.3103 5.40248 13.3703 4.44769 12.1227C3.49072 10.8723 2.89258 9.24502 2.89258 7.726Z" fill="#405FF2"/>
<path fill-rule="evenodd" clip-rule="evenodd" d="M6.31714 7.30538C6.31714 6.18775 7.22317 5.28174 8.34078 5.28174C9.45841 5.28174 10.3644 6.18775 10.3644 7.30538C10.3644 8.42299 9.45841 9.32902 8.34078 9.32902C7.22317 9.32902 6.31714 8.42299 6.31714 7.30538ZM8.34078 6.21573C7.73898 6.21573 7.25113 6.70358 7.25113 7.30538C7.25113 7.90718 7.73898 8.39503 8.34078 8.39503C8.94258 8.39503 9.43043 7.90718 9.43043 7.30538C9.43043 6.70358 8.94258 6.21573 8.34078 6.21573Z" fill="#405FF2"/>
</svg>
