<svg width="15" height="14" viewBox="0 0 15 14" fill="none" xmlns="http://www.w3.org/2000/svg">
<path d="M3.21289 1.53939C2.79342 1.53939 2.43387 1.6892 2.13425 1.98883C1.83463 2.28845 1.68481 2.65549 1.68481 3.08994C1.68481 3.5244 1.83463 3.89144 2.13425 4.19106C2.43387 4.49068 2.79342 4.6405 3.21289 4.6405C3.63237 4.6405 3.99192 4.49068 4.29154 4.19106C4.59116 3.89144 4.74098 3.5244 4.74098 3.08994C4.74098 2.65549 4.59116 2.28845 4.29154 1.98883C3.99192 1.6892 3.63237 1.53939 3.21289 1.53939ZM3.21289 2.39332C3.39267 2.39332 3.55746 2.46073 3.70727 2.59556C3.85709 2.7304 3.93199 2.89519 3.93199 3.08994C3.93199 3.2847 3.85709 3.44949 3.70727 3.58432C3.55746 3.71915 3.39267 3.78657 3.21289 3.78657C3.03312 3.78657 2.86833 3.71915 2.71852 3.58432C2.5687 3.44949 2.4938 3.2847 2.4938 3.08994C2.4938 2.89519 2.5687 2.7304 2.71852 2.59556C2.86833 2.46073 3.03312 2.39332 3.21289 2.39332ZM3.21289 9.40451C2.79342 9.40451 2.43387 9.55432 2.13425 9.85395C1.83463 10.1536 1.68481 10.5206 1.68481 10.9551C1.68481 11.3895 1.83463 11.7566 2.13425 12.0562C2.43387 12.3558 2.79342 12.5056 3.21289 12.5056C3.63237 12.5056 3.99192 12.3558 4.29154 12.0562C4.59116 11.7566 4.74098 11.3895 4.74098 10.9551C4.74098 10.5206 4.59116 10.1536 4.29154 9.85395C3.99192 9.55432 3.63237 9.40451 3.21289 9.40451ZM3.21289 10.2584C3.39267 10.2584 3.55746 10.3259 3.70727 10.4607C3.85709 10.5955 3.93199 10.7603 3.93199 10.9551C3.93199 11.1498 3.85709 11.3146 3.70727 11.4494C3.55746 11.5843 3.39267 11.6517 3.21289 11.6517C3.03312 11.6517 2.86833 11.5843 2.71852 11.4494C2.5687 11.3146 2.4938 11.1498 2.4938 10.9551C2.4938 10.7603 2.5687 10.5955 2.71852 10.4607C2.86833 10.3259 3.03312 10.2584 3.21289 10.2584ZM7.70725 1.53939C7.28778 1.53939 6.92823 1.6892 6.6286 1.98883C6.32898 2.28845 6.17917 2.65549 6.17917 3.08994C6.17917 3.5244 6.32898 3.89144 6.6286 4.19106C6.92823 4.49068 7.28778 4.6405 7.70725 4.6405C8.12672 4.6405 8.48627 4.49068 8.78589 4.19106C9.08552 3.89144 9.23533 3.5244 9.23533 3.08994C9.23533 2.65549 9.08552 2.28845 8.78589 1.98883C8.48627 1.6892 8.12672 1.53939 7.70725 1.53939ZM7.70725 2.39332C7.88702 2.39332 8.05182 2.46073 8.20163 2.59556C8.35144 2.7304 8.42635 2.89519 8.42635 3.08994C8.42635 3.2847 8.35144 3.44949 8.20163 3.58432C8.05182 3.71915 7.88702 3.78657 7.70725 3.78657C7.52747 3.78657 7.36268 3.71915 7.21287 3.58432C7.06306 3.44949 6.98815 3.2847 6.98815 3.08994C6.98815 2.89519 7.06306 2.7304 7.21287 2.59556C7.36268 2.46073 7.52747 2.39332 7.70725 2.39332ZM7.70725 9.40451C7.28778 9.40451 6.92823 9.55432 6.6286 9.85395C6.32898 10.1536 6.17917 10.5206 6.17917 10.9551C6.17917 11.3895 6.32898 11.7566 6.6286 12.0562C6.92823 12.3558 7.28778 12.5056 7.70725 12.5056C8.12672 12.5056 8.48627 12.3558 8.78589 12.0562C9.08552 11.7566 9.23533 11.3895 9.23533 10.9551C9.23533 10.5206 9.08552 10.1536 8.78589 9.85395C8.48627 9.55432 8.12672 9.40451 7.70725 9.40451ZM7.70725 10.2584C7.88702 10.2584 8.05182 10.3259 8.20163 10.4607C8.35144 10.5955 8.42635 10.7603 8.42635 10.9551C8.42635 11.1498 8.35144 11.3146 8.20163 11.4494C8.05182 11.5843 7.88702 11.6517 7.70725 11.6517C7.52747 11.6517 7.36268 11.5843 7.21287 11.4494C7.06306 11.3146 6.98815 11.1498 6.98815 10.9551C6.98815 10.7603 7.06306 10.5955 7.21287 10.4607C7.36268 10.3259 7.52747 10.2584 7.70725 10.2584ZM12.2016 1.53939C11.7821 1.53939 11.4226 1.6892 11.123 1.98883C10.8233 2.28845 10.6735 2.65549 10.6735 3.08994C10.6735 3.5244 10.8233 3.89144 11.123 4.19106C11.4226 4.49068 11.7821 4.6405 12.2016 4.6405C12.6211 4.6405 12.9806 4.49068 13.2802 4.19106C13.5799 3.89144 13.7297 3.5244 13.7297 3.08994C13.7297 2.65549 13.5799 2.28845 13.2802 1.98883C12.9806 1.6892 12.6211 1.53939 12.2016 1.53939ZM12.2016 2.39332C12.3814 2.39332 12.5462 2.46073 12.696 2.59556C12.8458 2.7304 12.9207 2.89519 12.9207 3.08994C12.9207 3.2847 12.8458 3.44949 12.696 3.58432C12.5462 3.71915 12.3814 3.78657 12.2016 3.78657C12.0218 3.78657 11.857 3.71915 11.7072 3.58432C11.5574 3.44949 11.4825 3.2847 11.4825 3.08994C11.4825 2.89519 11.5574 2.7304 11.7072 2.59556C11.857 2.46073 12.0218 2.39332 12.2016 2.39332ZM12.2016 9.40451C11.7821 9.40451 11.4226 9.55432 11.123 9.85395C10.8233 10.1536 10.6735 10.5206 10.6735 10.9551C10.6735 11.3895 10.8233 11.7566 11.123 12.0562C11.4226 12.3558 11.7821 12.5056 12.2016 12.5056C12.6211 12.5056 12.9806 12.3558 13.2802 12.0562C13.5799 11.7566 13.7297 11.3895 13.7297 10.9551C13.7297 10.5206 13.5799 10.1536 13.2802 9.85395C12.9806 9.55432 12.6211 9.40451 12.2016 9.40451ZM12.2016 10.2584C12.3814 10.2584 12.5462 10.3259 12.696 10.4607C12.8458 10.5955 12.9207 10.7603 12.9207 10.9551C12.9207 11.1498 12.8458 11.3146 12.696 11.4494C12.5462 11.5843 12.3814 11.6517 12.2016 11.6517C12.0218 11.6517 11.857 11.5843 11.7072 11.4494C11.5574 11.3146 11.4825 11.1498 11.4825 10.9551C11.4825 10.7603 11.5574 10.5955 11.7072 10.4607C11.857 10.3259 12.0218 10.2584 12.2016 10.2584ZM2.8084 4.19106V9.809C2.8084 9.92885 2.84586 10.0337 2.92076 10.1236C2.99567 10.2135 3.09305 10.2584 3.21289 10.2584C3.33274 10.2584 3.43012 10.2135 3.50503 10.1236C3.57993 10.0337 3.61739 9.94383 3.61739 9.85395V4.19106C3.61739 4.10117 3.57993 4.01129 3.50503 3.9214C3.43012 3.83151 3.33274 3.78657 3.21289 3.78657C3.09305 3.78657 2.99567 3.83151 2.92076 3.9214C2.84586 4.01129 2.8084 4.10117 2.8084 4.19106ZM7.30276 4.19106V9.809C7.30276 9.92885 7.34021 10.0337 7.41512 10.1236C7.49002 10.2135 7.5874 10.2584 7.70725 10.2584C7.8271 10.2584 7.92448 10.2135 7.99938 10.1236C8.07429 10.0337 8.11174 9.94383 8.11174 9.85395V4.19106C8.11174 4.10117 8.07429 4.01129 7.99938 3.9214C7.92448 3.83151 7.8271 3.78657 7.70725 3.78657C7.5874 3.78657 7.49002 3.83151 7.41512 3.9214C7.34021 4.01129 7.30276 4.10117 7.30276 4.19106ZM11.7971 4.19106V6.43824C11.7971 6.49816 11.7821 6.54311 11.7522 6.57307C11.7222 6.60303 11.6922 6.61801 11.6623 6.61801H3.21289C3.09305 6.61801 2.99567 6.65546 2.92076 6.73037C2.84586 6.80528 2.8084 6.90265 2.8084 7.0225C2.8084 7.14235 2.84586 7.23973 2.92076 7.31464C2.99567 7.38954 3.09305 7.427 3.21289 7.427H11.6623C11.9319 7.427 12.1567 7.33711 12.3364 7.15733C12.5162 6.97756 12.6061 6.73786 12.6061 6.43824V4.236C12.6061 4.11615 12.5686 4.01129 12.4937 3.9214C12.4188 3.83151 12.3215 3.78657 12.2016 3.78657C12.0818 3.78657 11.9844 3.83151 11.9095 3.9214C11.8346 4.01129 11.7971 4.10117 11.7971 4.19106Z" fill="#405FF2"/>
</svg>
