<svg width="15" height="15" viewBox="0 0 15 15" fill="none" xmlns="http://www.w3.org/2000/svg">
<g clip-path="url(#clip0_63_1291)">
<path d="M15 8.85034C15 10.5503 14.5 12.067 13.5 13.4003C13.4 13.5337 13.2667 13.6087 13.1 13.6253C12.9333 13.642 12.7833 13.6003 12.65 13.5003C12.5167 13.4003 12.4417 13.2753 12.425 13.1253C12.4083 12.9753 12.45 12.8337 12.55 12.7003C13.4167 11.567 13.85 10.2837 13.85 8.85034C13.85 7.717 13.5667 6.667 13 5.70034C12.4333 4.73367 11.6583 3.967 10.675 3.40034C9.69167 2.83367 8.63333 2.55034 7.5 2.55034C6.36667 2.55034 5.30833 2.83367 4.325 3.40034C3.34167 3.967 2.56667 4.73367 2 5.70034C1.43333 6.667 1.15 7.717 1.15 8.85034C1.15 10.2837 1.58333 11.567 2.45 12.7003C2.55 12.8337 2.59167 12.9753 2.575 13.1253C2.55833 13.2753 2.48333 13.4003 2.35 13.5003C2.21667 13.6003 2.06667 13.642 1.9 13.6253C1.73333 13.6087 1.6 13.5337 1.5 13.4003C0.5 12.067 0 10.5503 0 8.85034C0 7.517 0.333333 6.27534 1 5.12534C1.66667 3.97534 2.575 3.067 3.725 2.40034C4.875 1.73367 6.13333 1.40034 7.5 1.40034C8.86667 1.40034 10.125 1.73367 11.275 2.40034C12.425 3.067 13.3333 3.97534 14 5.12534C14.6667 6.27534 15 7.517 15 8.85034ZM11.2 5.35034C11.3333 5.45034 11.4 5.58367 11.4 5.75034C11.4 5.917 11.3333 6.05034 11.2 6.15034L9.3 8.10034C9.46667 8.40034 9.55 8.717 9.55 9.05034C9.55 9.617 9.35 10.1003 8.95 10.5003C8.55 10.9003 8.06667 11.1003 7.5 11.1003C6.93333 11.1003 6.45 10.9003 6.05 10.5003C5.65 10.1003 5.45 9.617 5.45 9.05034C5.45 8.48367 5.65 8.00034 6.05 7.60034C6.45 7.20034 6.93333 7.00034 7.5 7.00034C7.83333 7.00034 8.15 7.08367 8.45 7.25034L10.4 5.35034C10.5 5.217 10.6333 5.15034 10.8 5.15034C10.9667 5.15034 11.1 5.217 11.2 5.35034ZM8.4 9.05034C8.4 8.817 8.30833 8.617 8.125 8.45034C7.94167 8.28367 7.73333 8.20034 7.5 8.20034C7.26667 8.20034 7.05833 8.28367 6.875 8.45034C6.69167 8.617 6.6 8.817 6.6 9.05034C6.6 9.28367 6.69167 9.492 6.875 9.67534C7.05833 9.85867 7.26667 9.95034 7.5 9.95034C7.73333 9.95034 7.94167 9.85867 8.125 9.67534C8.30833 9.492 8.4 9.28367 8.4 9.05034Z" fill="#050B20"/>
</g>
<defs>
<clipPath id="clip0_63_1291">
<rect width="15" height="15" fill="white" transform="matrix(1 0 0 -1 0 15)"/>
</clipPath>
</defs>
</svg>
