<svg width="16" height="16" viewBox="0 0 16 16" fill="none" xmlns="http://www.w3.org/2000/svg">
<path d="M13.6006 7.08327C13.3659 7.08327 13.1642 6.90709 13.1374 6.66861C12.9008 4.56651 11.2676 2.93515 9.16549 2.70165C8.90954 2.67301 8.72465 2.44262 8.75329 2.18609C8.78127 1.93017 9.01107 1.73902 9.26885 1.77389C11.8074 2.05533 13.78 4.02542 14.0652 6.564C14.0945 6.82054 13.9095 7.05152 13.6536 7.08016C13.6362 7.08203 13.6181 7.08327 13.6006 7.08327Z" fill="#405FF2"/>
<path d="M11.396 7.0903C11.1768 7.0903 10.9819 6.93588 10.9384 6.71297C10.759 5.79143 10.0485 5.08098 9.12825 4.90228C8.87487 4.85309 8.70982 4.60838 8.75905 4.35496C8.8082 4.10154 9.05917 3.93653 9.30633 3.98572C10.6021 4.23728 11.6027 5.23727 11.8549 6.53364C11.9041 6.78769 11.7391 7.03239 11.4863 7.08158C11.4557 7.08719 11.4259 7.0903 11.396 7.0903Z" fill="#405FF2"/>
<path fill-rule="evenodd" clip-rule="evenodd" d="M4.74552 11.0043C7.68013 13.9396 9.63402 14.7092 10.8681 14.7092C11.4771 14.7092 11.9117 14.5218 12.2013 14.3138C12.2143 14.3063 13.5543 13.4869 13.7891 12.2466C13.8999 11.6644 13.738 11.0884 13.3221 10.5804C11.6085 8.50005 10.7355 8.69432 9.77167 9.16319C9.17948 9.45335 8.7119 9.67875 7.39122 8.35933C6.07131 7.03886 6.299 6.57118 6.58724 5.97913C7.05673 5.01526 7.24988 4.14207 5.16893 2.42727C4.66208 2.0132 4.08986 1.85131 3.50829 1.96028C2.28601 2.18879 1.46286 3.50696 1.46286 3.50696C0.807819 4.42663 0.363244 6.62276 4.74552 11.0043ZM3.69883 2.87434C3.75362 2.86562 3.80779 2.86064 3.86134 2.86064C4.10542 2.86064 4.34079 2.95591 4.57553 3.14893C6.25358 4.53123 6.04127 4.9671 5.74738 5.57044C5.30591 6.47766 5.0749 7.36307 6.73058 9.01997C8.3881 10.6768 9.27412 10.4459 10.1801 10.0031L10.1816 10.0024C10.7842 9.70947 11.2199 9.49776 12.6004 11.1737C12.8364 11.4614 12.9266 11.749 12.8756 12.0523C12.7579 12.7497 11.9472 13.3742 11.7019 13.5261C10.8233 14.1525 8.70817 13.6463 5.40554 10.3443C2.1042 7.0424 1.59735 4.92725 2.24616 4.01505C2.37568 3.80397 3.0027 2.99202 3.69883 2.87434Z" fill="#405FF2"/>
</svg>
