<svg width="16" height="16" viewBox="0 0 16 16" fill="none" xmlns="http://www.w3.org/2000/svg">
<g clip-path="url(#clip0_63_1337)">
<path d="M2.72794 11.7969C2.46128 12.0635 2.32794 12.3719 2.32794 12.7219C2.32794 13.0719 2.46128 13.3802 2.72794 13.6469C2.99461 13.9135 3.30294 14.0469 3.65294 14.0469C4.00294 14.0469 4.31128 13.9135 4.57794 13.6469C4.84461 13.3802 4.97794 13.0719 4.97794 12.7219C4.97794 12.3719 4.84461 12.0635 4.57794 11.7969C4.31128 11.5302 4.00294 11.3969 3.65294 11.3969C3.30294 11.3969 2.99461 11.5302 2.72794 11.7969ZM3.97794 13.0469C3.87794 13.1135 3.76961 13.1469 3.65294 13.1469C3.53628 13.1469 3.43628 13.1052 3.35294 13.0219C3.26961 12.9385 3.22794 12.8385 3.22794 12.7219C3.22794 12.6052 3.26961 12.5052 3.35294 12.4219C3.43628 12.3385 3.53628 12.2969 3.65294 12.2969C3.76961 12.2969 3.86961 12.3385 3.95294 12.4219C4.03628 12.5052 4.07794 12.6052 4.07794 12.7219C4.07794 12.8385 4.04461 12.9469 3.97794 13.0469ZM15.1779 4.74687L11.6279 1.19687C11.3613 0.930208 11.0446 0.796875 10.6779 0.796875C10.3113 0.796875 9.99461 0.930208 9.72794 1.19687L5.97794 4.89687L6.52794 5.49687C7.26128 5.46354 7.94461 5.61354 8.57794 5.94687L4.67794 9.84687C4.14461 9.64687 3.58628 9.60521 3.00294 9.72187C2.41961 9.83854 1.91961 10.1052 1.50294 10.5219C1.08628 10.9385 0.811275 11.4052 0.677942 11.9219C0.544609 12.4385 0.544609 12.9635 0.677942 13.4969C0.811275 14.0302 1.07794 14.4969 1.47794 14.8969C1.77794 15.1969 2.11128 15.4219 2.47794 15.5719C2.84461 15.7219 3.23628 15.7969 3.65294 15.7969C4.06961 15.7969 4.46128 15.7219 4.82794 15.5719C5.19461 15.4219 5.52794 15.1969 5.82794 14.8969C6.26128 14.4635 6.53628 13.9552 6.65294 13.3719C6.76961 12.7885 6.72794 12.2302 6.52794 11.6969L10.4279 7.79688C10.7613 8.43021 10.9113 9.11354 10.8779 9.84687L11.4779 10.3969L15.1779 6.64687C15.4446 6.41354 15.5779 6.10521 15.5779 5.72188C15.5779 5.33854 15.4446 5.01354 15.1779 4.74687ZM5.22794 14.2969C4.79461 14.6969 4.26961 14.8969 3.65294 14.8969C3.03628 14.8969 2.51961 14.6885 2.10294 14.2719C1.68628 13.8552 1.47794 13.3385 1.47794 12.7219C1.47794 12.1052 1.68628 11.5885 2.10294 11.1719C2.51961 10.7552 3.03628 10.5469 3.65294 10.5469C4.26961 10.5469 4.78628 10.7552 5.20294 11.1719C5.61961 11.5885 5.82794 12.1052 5.82794 12.7219C5.82794 13.3385 5.62794 13.8635 5.22794 14.2969ZM6.12794 10.8969C6.02794 10.7635 5.92794 10.6469 5.82794 10.5469C5.72794 10.4469 5.61128 10.3469 5.47794 10.2469L9.32794 6.44687C9.56128 6.64687 9.76128 6.84688 9.92794 7.04688L6.12794 10.8969ZM10.2779 6.09688C9.47794 5.33021 8.54461 4.86354 7.47794 4.69687L9.32794 2.84688L13.5279 7.04688L11.6779 8.89687C11.5113 7.83021 11.0446 6.89687 10.2779 6.09688ZM14.5779 6.04688L14.1779 6.44687L9.92794 2.19687L10.3279 1.79688C10.4279 1.73021 10.5446 1.69687 10.6779 1.69687C10.8113 1.69687 10.9113 1.73021 10.9779 1.79688L14.5779 5.39687C14.6446 5.46354 14.6779 5.56354 14.6779 5.69687C14.6779 5.83021 14.6446 5.94687 14.5779 6.04688Z" fill="#050B20"/>
</g>
<defs>
<clipPath id="clip0_63_1337">
<rect width="15" height="15" fill="white" transform="matrix(1 0 0 -1 0.577942 15.7969)"/>
</clipPath>
</defs>
</svg>
