<svg width="12" height="12" viewBox="0 0 12 12" fill="none" xmlns="http://www.w3.org/2000/svg">
<g clip-path="url(#clip0_63_1246)">
<path d="M10.2801 3.84049H8.16006C8.02673 3.84049 7.92006 3.88716 7.84006 3.98049C7.76006 4.07382 7.72006 4.18049 7.72006 4.30049C7.72006 4.42049 7.76006 4.52049 7.84006 4.60049C7.92006 4.68049 8.02673 4.72049 8.16006 4.72049H10.2801C10.4134 4.72049 10.5201 4.76049 10.6001 4.84049C10.6801 4.92049 10.7201 5.02715 10.7201 5.16049V10.7205C10.7201 10.8272 10.6801 10.9272 10.6001 11.0205C10.5201 11.1138 10.4134 11.1605 10.2801 11.1605H1.72006C1.58673 11.1605 1.48006 11.1138 1.40006 11.0205C1.32006 10.9272 1.28006 10.8272 1.28006 10.7205V5.16049C1.28006 5.02715 1.32006 4.92049 1.40006 4.84049C1.48006 4.76049 1.58673 4.72049 1.72006 4.72049H3.84006C3.9734 4.72049 4.08006 4.68049 4.16006 4.60049C4.24006 4.52049 4.28006 4.42049 4.28006 4.30049C4.28006 4.18049 4.24006 4.07382 4.16006 3.98049C4.08006 3.88716 3.9734 3.84049 3.84006 3.84049H1.72006C1.3734 3.84049 1.0734 3.96716 0.820063 4.22049C0.56673 4.47382 0.440063 4.78716 0.440063 5.16049V10.7205C0.440063 11.0672 0.56673 11.3672 0.820063 11.6205C1.0734 11.8738 1.3734 12.0005 1.72006 12.0005H10.2801C10.6267 12.0005 10.9267 11.8738 11.1801 11.6205C11.4334 11.3672 11.5601 11.0672 11.5601 10.7205V5.16049C11.5601 4.78716 11.4334 4.47382 11.1801 4.22049C10.9267 3.96716 10.6267 3.84049 10.2801 3.84049ZM8.44006 2.28049L6.32006 0.120488C6.2134 0.0404882 6.10673 0.000488281 6.00006 0.000488281C5.8934 0.000488281 5.78673 0.0404882 5.68006 0.120488L3.56006 2.28049C3.48006 2.36049 3.44006 2.46049 3.44006 2.58049C3.44006 2.70049 3.48006 2.80049 3.56006 2.88049C3.64006 2.96049 3.74006 3.00049 3.86006 3.00049C3.98006 3.00049 4.08006 2.96049 4.16006 2.88049L5.56006 1.48049V8.56049C5.56006 8.69382 5.60673 8.80049 5.70006 8.88049C5.7934 8.96049 5.8934 9.00049 6.00006 9.00049C6.10673 9.00049 6.20673 8.96049 6.30006 8.88049C6.3934 8.80049 6.44006 8.69382 6.44006 8.56049V1.48049L7.84006 2.88049C7.92006 2.96049 8.02006 3.00049 8.14006 3.00049C8.26006 3.00049 8.36006 2.95382 8.44006 2.86049C8.52006 2.76715 8.56006 2.66716 8.56006 2.56049C8.56006 2.45382 8.52006 2.36049 8.44006 2.28049Z" fill="#050B20"/>
</g>
<defs>
<clipPath id="clip0_63_1246">
<rect width="12" height="12" fill="white" transform="matrix(1 0 0 -1 0 12.0005)"/>
</clipPath>
</defs>
</svg>
