<svg width="15" height="14" viewBox="0 0 15 14" fill="none" xmlns="http://www.w3.org/2000/svg">
<g clip-path="url(#clip0_63_1229)">
<path d="M14.4488 8.23593C14.4488 9.76401 13.9993 11.1273 13.1005 12.3258C13.0106 12.4456 12.8907 12.5131 12.7409 12.528C12.5911 12.543 12.4563 12.5056 12.3364 12.4157C12.2166 12.3258 12.1491 12.2134 12.1342 12.0786C12.1192 11.9438 12.1566 11.8164 12.2465 11.6966C13.0255 10.6779 13.4151 9.52431 13.4151 8.23593C13.4151 7.21721 13.1604 6.2734 12.651 5.40449C12.1417 4.53558 11.445 3.84645 10.5611 3.33709C9.67725 2.82773 8.72595 2.57305 7.70723 2.57305C6.68851 2.57305 5.7372 2.82773 4.85331 3.33709C3.96942 3.84645 3.2728 4.53558 2.76344 5.40449C2.25408 6.2734 1.9994 7.21721 1.9994 8.23593C1.9994 9.52431 2.38891 10.6779 3.16793 11.6966C3.25782 11.8164 3.29527 11.9438 3.28029 12.0786C3.26531 12.2134 3.19789 12.3258 3.07804 12.4157C2.9582 12.5056 2.82336 12.543 2.67355 12.528C2.52374 12.5131 2.40389 12.4456 2.314 12.3258C1.41513 11.1273 0.965698 9.76401 0.965698 8.23593C0.965698 7.03744 1.26532 5.92134 1.86457 4.88764C2.46382 3.85394 3.28029 3.03746 4.31399 2.43822C5.34769 1.83897 6.47877 1.53934 7.70723 1.53934C8.93569 1.53934 10.0668 1.83897 11.1005 2.43822C12.1342 3.03746 12.9506 3.85394 13.5499 4.88764C14.1491 5.92134 14.4488 7.03744 14.4488 8.23593ZM11.0331 5.08988C11.1529 5.17977 11.2128 5.29962 11.2128 5.44943C11.2128 5.59924 11.1529 5.71909 11.0331 5.80898L9.3252 7.56178C9.47501 7.83144 9.54991 8.11608 9.54991 8.41571C9.54991 8.92507 9.37014 9.35952 9.01059 9.71907C8.65104 10.0786 8.21659 10.2584 7.70723 10.2584C7.19787 10.2584 6.76341 10.0786 6.40387 9.71907C6.04432 9.35952 5.86454 8.92507 5.86454 8.41571C5.86454 7.90635 6.04432 7.47189 6.40387 7.11234C6.76341 6.7528 7.19787 6.57302 7.70723 6.57302C8.00685 6.57302 8.29149 6.64793 8.56116 6.79774L10.314 5.08988C10.4038 4.97004 10.5237 4.91011 10.6735 4.91011C10.8233 4.91011 10.9432 4.97004 11.0331 5.08988ZM8.51621 8.41571C8.51621 8.20597 8.43382 8.0262 8.26902 7.87638C8.10423 7.72657 7.91697 7.65167 7.70723 7.65167C7.49749 7.65167 7.31023 7.72657 7.14543 7.87638C6.98064 8.0262 6.89825 8.20597 6.89825 8.41571C6.89825 8.62544 6.98064 8.81271 7.14543 8.9775C7.31023 9.14229 7.49749 9.22469 7.70723 9.22469C7.91697 9.22469 8.10423 9.14229 8.26902 8.9775C8.43382 8.81271 8.51621 8.62544 8.51621 8.41571Z" fill="#405FF2"/>
</g>
<defs>
<clipPath id="clip0_63_1229">
<rect width="13.4831" height="13.4831" fill="white" transform="matrix(1 0 0 -1 0.965698 13.7637)"/>
</clipPath>
</defs>
</svg>
