<svg width="17" height="17" viewBox="0 0 17 17" fill="none" xmlns="http://www.w3.org/2000/svg">
<g clip-path="url(#clip0_229_5305)">
<path d="M15.9908 10.9966C16.3464 10.0721 16.5242 9.12992 16.5242 8.16992C16.5242 7.10326 16.3197 6.08103 15.9108 5.10326C15.5019 4.12548 14.9242 3.26326 14.1775 2.51659C13.4308 1.76992 12.5686 1.19214 11.5908 0.783255C10.6131 0.374366 9.59084 0.169922 8.52417 0.169922C7.4575 0.169922 6.43528 0.374366 5.4575 0.783255C4.47973 1.19214 3.6175 1.76992 2.87084 2.51659C2.12417 3.26326 1.54639 4.12548 1.1375 5.10326C0.728614 6.08103 0.52417 7.10326 0.52417 8.16992C0.52417 9.23659 0.728614 10.2588 1.1375 11.2366C1.54639 12.2144 2.12417 13.0766 2.87084 13.8233C3.6175 14.5699 4.47973 15.1477 5.4575 15.5566C6.43528 15.9655 7.4575 16.1699 8.52417 16.1699C10.0175 16.1699 11.4042 15.7788 12.6842 14.9966C12.8264 14.9255 12.9153 14.801 12.9508 14.6233C12.9864 14.4455 12.9597 14.2855 12.8708 14.1433C12.7819 14.001 12.6575 13.9121 12.4975 13.8766C12.3375 13.841 12.1686 13.8588 11.9908 13.9299C11.5642 14.2144 11.0842 14.4455 10.5508 14.6233C10.5864 13.0588 10.9064 11.9744 11.5108 11.3699C11.9019 10.9788 12.3997 10.7833 13.0042 10.7833C13.5019 10.7833 14.0353 10.9077 14.6042 11.1566C14.4619 11.4055 14.3019 11.6544 14.1242 11.9033C14.0175 12.0455 13.9819 12.2055 14.0175 12.3833C14.0531 12.561 14.1419 12.6944 14.2842 12.7833C14.4264 12.8721 14.5864 12.8988 14.7642 12.8633C14.9419 12.8277 15.0842 12.7388 15.1908 12.5966C15.4753 12.1344 15.7242 11.6544 15.9375 11.1566L15.9908 10.9966ZM8.52417 1.39659C9.62639 1.39659 10.6486 1.64548 11.5908 2.14326C12.5331 2.64103 13.3242 3.31659 13.9642 4.16992C14.6042 5.02326 15.0131 5.98326 15.1908 7.04992C14.3019 6.72992 13.3953 6.46325 12.4708 6.24992C11.0486 5.92992 9.72417 5.76992 8.4975 5.76992C7.27084 5.76992 5.96417 5.91214 4.5775 6.19659C3.65306 6.40992 2.74639 6.67659 1.8575 6.99659C2.07084 5.96548 2.48861 5.02326 3.11084 4.16992C3.73306 3.31659 4.51528 2.64103 5.4575 2.14326C6.39973 1.64548 7.42195 1.39659 8.52417 1.39659ZM2.44417 11.1566C3.04861 10.9077 3.58195 10.7833 4.04417 10.7833H4.0975C4.77306 10.7833 5.28861 11.0144 5.64417 11.4766C6.1775 12.1166 6.46195 13.1655 6.4975 14.6233C5.60861 14.3388 4.8175 13.8944 4.12417 13.2899C3.43084 12.6855 2.87084 11.9744 2.44417 11.1566ZM13.0042 9.55659C12.0442 9.55659 11.2619 9.85881 10.6575 10.4633C9.76861 11.3521 9.32417 12.8099 9.32417 14.8366V14.8899C9.03973 14.9255 8.77306 14.9433 8.52417 14.9433C8.27528 14.9433 8.00861 14.9255 7.72417 14.8899V14.8366C7.72417 12.8099 7.2975 11.3521 6.44417 10.4633C5.83973 9.85881 5.0575 9.55659 4.0975 9.55659H4.04417C3.40417 9.55659 2.72861 9.69881 2.0175 9.98325C1.87528 9.44992 1.78639 8.91659 1.75084 8.38326C2.46195 8.09881 3.26195 7.84992 4.15084 7.63659C5.71528 7.20992 7.17306 6.99659 8.52417 6.99659C9.87528 6.99659 11.3864 7.2277 13.0575 7.68992C13.9108 7.90326 14.6397 8.13437 15.2442 8.38326C15.2442 8.91659 15.1731 9.44992 15.0308 9.98325C14.3197 9.69881 13.6442 9.55659 13.0042 9.55659ZM10.6575 8.75659C10.6575 8.93437 10.5953 9.08548 10.4708 9.20992C10.3464 9.33437 10.1953 9.39659 10.0175 9.39659H6.9775C6.79973 9.39659 6.6575 9.33437 6.55084 9.20992C6.44417 9.08548 6.39084 8.93437 6.39084 8.75659C6.39084 8.57881 6.44417 8.4277 6.55084 8.30326C6.6575 8.17881 6.79973 8.11659 6.9775 8.11659H10.0175C10.1953 8.11659 10.3464 8.17881 10.4708 8.30326C10.5953 8.4277 10.6575 8.57881 10.6575 8.75659Z" fill="#050B20"/>
</g>
<defs>
<clipPath id="clip0_229_5305">
<rect width="16" height="16" fill="white" transform="matrix(1 0 0 -1 0.52417 16.1699)"/>
</clipPath>
</defs>
</svg>
