<svg width="16" height="15" viewBox="0 0 16 15" fill="none" xmlns="http://www.w3.org/2000/svg">
<g clip-path="url(#clip0_63_1320)">
<path d="M8.07782 8.45C5.81115 8.45 4.07782 8.96667 2.87782 10C1.67782 11.0333 1.07782 12.5167 1.07782 14.45C1.07782 14.6167 1.13615 14.75 1.25282 14.85C1.36949 14.95 1.49449 15 1.62782 15H14.5278C14.6612 15 14.7862 14.95 14.9028 14.85C15.0195 14.75 15.0778 14.6167 15.0778 14.45C15.0778 12.5167 14.4778 11.0333 13.2778 10C12.0778 8.96667 10.3445 8.45 8.07782 8.45ZM2.22782 13.9C2.42782 11 4.37782 9.55 8.07782 9.55C11.7778 9.55 13.7278 11 13.9278 13.9H2.22782ZM8.07782 0C7.41115 0 6.79449 0.158333 6.22782 0.474999C5.66115 0.791666 5.21949 1.23333 4.90282 1.8C4.58615 2.36667 4.42782 3 4.42782 3.7C4.42782 4.4 4.59449 5.05833 4.92782 5.675C5.26115 6.29167 5.70282 6.775 6.25282 7.125C6.80282 7.475 7.41115 7.65 8.07782 7.65C8.74449 7.65 9.35282 7.475 9.90282 7.125C10.4528 6.775 10.8945 6.29167 11.2278 5.675C11.5612 5.05833 11.7278 4.4 11.7278 3.7C11.7278 3 11.5695 2.36667 11.2528 1.8C10.9362 1.23333 10.4945 0.791666 9.92782 0.474999C9.36115 0.158333 8.74449 0 8.07782 0ZM8.07782 6.55C7.37782 6.55 6.77782 6.275 6.27782 5.725C5.77782 5.175 5.52782 4.50833 5.52782 3.725C5.52782 2.94167 5.76949 2.30833 6.25282 1.825C6.73615 1.34167 7.34449 1.1 8.07782 1.1C8.81115 1.1 9.41949 1.35 9.90282 1.85C10.3862 2.35 10.6278 2.98333 10.6278 3.75C10.6278 4.51667 10.3778 5.175 9.87782 5.725C9.37782 6.275 8.77782 6.55 8.07782 6.55Z" fill="#050B20"/>
</g>
<defs>
<clipPath id="clip0_63_1320">
<rect width="15" height="15" fill="white" transform="matrix(1 0 0 -1 0.577881 15)"/>
</clipPath>
</defs>
</svg>
