<svg width="16" height="16" viewBox="0 0 16 16" fill="none" xmlns="http://www.w3.org/2000/svg">
<g clip-path="url(#clip0_63_1355)">
<path d="M6.07794 7.32812C5.94461 7.32812 5.82794 7.27812 5.72794 7.17812C5.62794 7.07812 5.57794 6.96146 5.57794 6.82812V5.32812C5.54461 5.12813 5.61961 4.96979 5.80294 4.85312C5.98628 4.73646 6.16961 4.73646 6.35294 4.85312C6.53628 4.96979 6.61128 5.12813 6.57794 5.32812V6.82812C6.57794 6.96146 6.52794 7.07812 6.42794 7.17812C6.32794 7.27812 6.21128 7.32812 6.07794 7.32812ZM8.07794 7.32812C7.94461 7.32812 7.82794 7.27812 7.72794 7.17812C7.62794 7.07812 7.57794 6.96146 7.57794 6.82812V4.82812C7.57794 4.69479 7.62794 4.58646 7.72794 4.50313C7.82794 4.41979 7.94461 4.37813 8.07794 4.37813C8.21128 4.37813 8.32794 4.41979 8.42794 4.50313C8.52794 4.58646 8.57794 4.69479 8.57794 4.82812V6.82812C8.57794 6.96146 8.52794 7.07812 8.42794 7.17812C8.32794 7.27812 8.21128 7.32812 8.07794 7.32812ZM10.0779 7.32812C9.94461 7.32812 9.82794 7.27812 9.72794 7.17812C9.62794 7.07812 9.57794 6.96146 9.57794 6.82812V3.82812C9.54461 3.62813 9.61961 3.46979 9.80294 3.35312C9.98628 3.23646 10.1696 3.23646 10.3529 3.35312C10.5363 3.46979 10.6113 3.62813 10.5779 3.82812V6.82812C10.5779 6.96146 10.5279 7.07812 10.4279 7.17812C10.3279 7.27812 10.2113 7.32812 10.0779 7.32812ZM12.0779 15.3281H4.07794C3.51128 15.3281 3.03628 15.1365 2.65294 14.7531C2.26961 14.3698 2.07794 13.8948 2.07794 13.3281V4.27812C2.07794 3.91146 2.15294 3.55312 2.30294 3.20312C2.45294 2.85312 2.67794 2.56146 2.97794 2.32812L4.72794 0.928124C5.16128 0.528125 5.67794 0.328125 6.27794 0.328125H12.0779C12.6446 0.328125 13.1196 0.519792 13.5029 0.903125C13.8863 1.28646 14.0779 1.76146 14.0779 2.32812V13.3281C14.0779 13.8948 13.8863 14.3698 13.5029 14.7531C13.1196 15.1365 12.6446 15.3281 12.0779 15.3281ZM6.27794 1.32812C5.94461 1.32812 5.64461 1.44479 5.37794 1.67812L3.62794 3.12813C3.26128 3.42812 3.07794 3.81146 3.07794 4.27812V13.3281C3.07794 13.5948 3.17794 13.8281 3.37794 14.0281C3.57794 14.2281 3.81128 14.3281 4.07794 14.3281H12.0779C12.3446 14.3281 12.5779 14.2281 12.7779 14.0281C12.9779 13.8281 13.0779 13.5948 13.0779 13.3281V2.32812C13.0779 2.06146 12.9779 1.82812 12.7779 1.62813C12.5779 1.42812 12.3446 1.32812 12.0779 1.32812H6.27794ZM11.0779 12.3281H5.07794C4.87794 12.3615 4.71961 12.2865 4.60294 12.1031C4.48628 11.9198 4.48628 11.7365 4.60294 11.5531C4.71961 11.3698 4.87794 11.2948 5.07794 11.3281H11.0779C11.2779 11.2948 11.4363 11.3698 11.5529 11.5531C11.6696 11.7365 11.6696 11.9198 11.5529 12.1031C11.4363 12.2865 11.2779 12.3615 11.0779 12.3281ZM11.0779 9.82812H5.07794C4.94461 9.82812 4.83628 9.77812 4.75294 9.67812C4.66961 9.57812 4.62794 9.46146 4.62794 9.32812C4.62794 9.19479 4.66961 9.07812 4.75294 8.97813C4.83628 8.87812 4.94461 8.82812 5.07794 8.82812H11.0779C11.2779 8.79479 11.4363 8.86979 11.5529 9.05312C11.6696 9.23646 11.6696 9.41979 11.5529 9.60313C11.4363 9.78646 11.2779 9.86146 11.0779 9.82812Z" fill="#050B20"/>
</g>
<defs>
<clipPath id="clip0_63_1355">
<rect width="15" height="15" fill="white" transform="matrix(1 0 0 -1 0.577942 15.3281)"/>
</clipPath>
</defs>
</svg>
