<svg width="15" height="16" viewBox="0 0 15 16" fill="none" xmlns="http://www.w3.org/2000/svg">
<g clip-path="url(#clip0_63_1302)">
<path d="M12.1 1.41562H11.55V0.865624C11.55 0.698958 11.4917 0.557291 11.375 0.440625C11.2583 0.323958 11.1167 0.265625 10.95 0.265625C10.7833 0.265625 10.6417 0.323958 10.525 0.440625C10.4083 0.557291 10.35 0.698958 10.35 0.865624V1.41562H4.65V0.865624C4.65 0.698958 4.59167 0.557291 4.475 0.440625C4.35833 0.323958 4.21667 0.265625 4.05 0.265625C3.88333 0.265625 3.74167 0.323958 3.625 0.440625C3.50833 0.557291 3.45 0.698958 3.45 0.865624V1.41562H2.9C2.36667 1.41562 1.88333 1.54896 1.45 1.81563C1.01667 2.08229 0.666667 2.43229 0.4 2.86562C0.133333 3.29896 0 3.78229 0 4.31563V12.3656C0 12.899 0.133333 13.3823 0.4 13.8156C0.666667 14.249 1.01667 14.599 1.45 14.8656C1.88333 15.1323 2.36667 15.2656 2.9 15.2656H12.1C12.6333 15.2656 13.1167 15.1323 13.55 14.8656C13.9833 14.599 14.3333 14.249 14.6 13.8156C14.8667 13.3823 15 12.899 15 12.3656V4.31563C15 3.78229 14.8667 3.29896 14.6 2.86562C14.3333 2.43229 13.9833 2.08229 13.55 1.81563C13.1167 1.54896 12.6333 1.41562 12.1 1.41562ZM2.9 2.61562H3.45V3.71562C3.45 3.88229 3.50833 4.02396 3.625 4.14062C3.74167 4.25729 3.88333 4.31563 4.05 4.31563C4.21667 4.31563 4.35833 4.25729 4.475 4.14062C4.59167 4.02396 4.65 3.88229 4.65 3.71562V2.61562H10.35V3.71562C10.35 3.88229 10.4083 4.02396 10.525 4.14062C10.6417 4.25729 10.7833 4.31563 10.95 4.31563C11.1167 4.31563 11.2583 4.25729 11.375 4.14062C11.4917 4.02396 11.55 3.88229 11.55 3.71562V2.61562H12.1C12.5667 2.61562 12.975 2.78229 13.325 3.11562C13.675 3.44896 13.85 3.84896 13.85 4.31563V4.86562H1.15V4.31563C1.15 3.84896 1.325 3.44896 1.675 3.11562C2.025 2.78229 2.43333 2.61562 2.9 2.61562ZM12.1 14.1156H2.9C2.43333 14.1156 2.025 13.9406 1.675 13.5906C1.325 13.2406 1.15 12.8323 1.15 12.3656V6.06563H13.85V12.3656C13.85 12.8323 13.675 13.2406 13.325 13.5906C12.975 13.9406 12.5667 14.1156 12.1 14.1156ZM5.2 8.36562C5.2 8.53229 5.14167 8.66563 5.025 8.76562C4.90833 8.86562 4.76667 8.91563 4.6 8.91563H3.45C3.28333 8.91563 3.15 8.86562 3.05 8.76562C2.95 8.66563 2.9 8.53229 2.9 8.36562C2.9 8.19896 2.95 8.05729 3.05 7.94062C3.15 7.82396 3.28333 7.76562 3.45 7.76562H4.6C4.76667 7.76562 4.90833 7.82396 5.025 7.94062C5.14167 8.05729 5.2 8.19896 5.2 8.36562ZM12.1 8.36562C12.1 8.53229 12.05 8.66563 11.95 8.76562C11.85 8.86562 11.7167 8.91563 11.55 8.91563H10.4C10.2333 8.91563 10.0917 8.86562 9.975 8.76562C9.85833 8.66563 9.8 8.53229 9.8 8.36562C9.8 8.19896 9.85833 8.05729 9.975 7.94062C10.0917 7.82396 10.2333 7.76562 10.4 7.76562H11.55C11.7167 7.76562 11.85 7.82396 11.95 7.94062C12.05 8.05729 12.1 8.19896 12.1 8.36562ZM8.65 8.36562C8.65 8.53229 8.59167 8.66563 8.475 8.76562C8.35833 8.86562 8.21667 8.91563 8.05 8.91563H6.9C6.76667 8.91563 6.64167 8.86562 6.525 8.76562C6.40833 8.66563 6.35 8.53229 6.35 8.36562C6.35 8.19896 6.40833 8.05729 6.525 7.94062C6.64167 7.82396 6.76667 7.76562 6.9 7.76562H8.05C8.21667 7.76562 8.35833 7.82396 8.475 7.94062C8.59167 8.05729 8.65 8.19896 8.65 8.36562ZM5.2 11.8156C5.2 11.9823 5.14167 12.124 5.025 12.2406C4.90833 12.3573 4.76667 12.4156 4.6 12.4156H3.45C3.28333 12.4156 3.15 12.3573 3.05 12.2406C2.95 12.124 2.9 11.9823 2.9 11.8156C2.9 11.649 2.95 11.5073 3.05 11.3906C3.15 11.274 3.28333 11.2156 3.45 11.2156H4.6C4.76667 11.2156 4.90833 11.274 5.025 11.3906C5.14167 11.5073 5.2 11.649 5.2 11.8156ZM12.1 11.8156C12.1 11.9823 12.05 12.124 11.95 12.2406C11.85 12.3573 11.7167 12.4156 11.55 12.4156H10.4C10.2333 12.4156 10.0917 12.3573 9.975 12.2406C9.85833 12.124 9.8 11.9823 9.8 11.8156C9.8 11.649 9.85833 11.5073 9.975 11.3906C10.0917 11.274 10.2333 11.2156 10.4 11.2156H11.55C11.7167 11.2156 11.85 11.274 11.95 11.3906C12.05 11.5073 12.1 11.649 12.1 11.8156ZM8.65 11.8156C8.65 11.9823 8.59167 12.124 8.475 12.2406C8.35833 12.3573 8.21667 12.4156 8.05 12.4156H6.9C6.76667 12.4156 6.64167 12.3573 6.525 12.2406C6.40833 12.124 6.35 11.9823 6.35 11.8156C6.35 11.649 6.40833 11.5073 6.525 11.3906C6.64167 11.274 6.76667 11.2156 6.9 11.2156H8.05C8.21667 11.2156 8.35833 11.274 8.475 11.3906C8.59167 11.5073 8.65 11.649 8.65 11.8156Z" fill="#050B20"/>
</g>
<defs>
<clipPath id="clip0_63_1302">
<rect width="15" height="15" fill="white" transform="matrix(1 0 0 -1 0 15.2656)"/>
</clipPath>
</defs>
</svg>
