<svg width="11" height="11" viewBox="0 0 11 11" fill="none" xmlns="http://www.w3.org/2000/svg">
<g clip-path="url(#clip0_239_8683)">
<path d="M2.70312 5.24841C2.70312 5.05307 2.77909 4.89029 2.93102 4.76007L7.13076 0.560325C7.26099 0.430099 7.41834 0.364987 7.60283 0.364987C7.78731 0.364987 7.95009 0.430099 8.09117 0.560325C8.23225 0.690549 8.30278 0.85333 8.30278 1.04867C8.30278 1.244 8.22682 1.40679 8.07489 1.53701L4.36349 5.24841L8.07489 8.95981C8.20512 9.09004 8.27023 9.25282 8.27023 9.44816C8.27023 9.64349 8.20512 9.80627 8.07489 9.9365C7.94467 10.0667 7.78731 10.1318 7.60283 10.1318C7.41834 10.1318 7.26099 10.0667 7.13076 9.9365L2.93102 5.73675C2.77909 5.60653 2.70312 5.44375 2.70312 5.24841Z" fill="#050B20"/>
</g>
<defs>
<clipPath id="clip0_239_8683">
<rect width="9.76685" height="9.76685" fill="white" transform="matrix(1 0 0 -1 0.619629 10.1318)"/>
</clipPath>
</defs>
</svg>
